<svg data-v-fde0c5aa="" xmlns="http://www.w3.org/2000/svg" viewBox="0 0 300 300" class="iconAboveSlogan"><!----><defs data-v-fde0c5aa=""><linearGradient data-v-fde0c5aa="" gradientTransform="rotate(25)" id="3ddc6c55-60d0-4520-89f8-6e4e32477b74" x1="0%" y1="0%" x2="100%" y2="0%"><stop data-v-fde0c5aa="" offset="0%" stop-color="#ECE3F7" stop-opacity="1"></stop><stop data-v-fde0c5aa="" offset="100%" stop-color="#DAC0F9" stop-opacity="1"></stop></linearGradient></defs><rect data-v-fde0c5aa="" fill="url(#3ddc6c55-60d0-4520-89f8-6e4e32477b74)" x="0" y="0" width="300px" height="300px" class="logo-background-square"></rect><defs data-v-fde0c5aa=""><!----></defs><g data-v-fde0c5aa="" id="ecadedef-4b43-4220-a66a-6afc2925a274" fill="#000000" transform="matrix(5.603448552268877,0,0,5.603448552268877,16.862068797369766,146.25892345677158)"><path d="M8.00 4.90L8.00 4.90L8.00 4.90Q8.00 5.42 7.80 5.93L7.80 5.93L7.80 5.93Q7.59 6.45 7.25 6.88L7.25 6.88L7.25 6.88Q6.90 7.32 6.45 7.65L6.45 7.65L6.45 7.65Q6.00 7.98 5.52 8.12L5.52 8.12L5.37 7.88L5.37 7.88Q5.66 7.74 5.90 7.51L5.90 7.51L5.90 7.51Q6.14 7.29 6.31 7.00L6.31 7.00L6.31 7.00Q6.48 6.72 6.57 6.40L6.57 6.40L6.57 6.40Q6.67 6.08 6.67 5.76L6.67 5.76L6.67 5.76Q6.67 5.38 6.56 5.04L6.56 5.04L6.56 5.04Q6.45 4.71 6.23 4.46L6.23 4.46L6.23 4.46Q6.02 4.21 5.71 4.07L5.71 4.07L5.71 4.07Q5.40 3.92 5.00 3.92L5.00 3.92L5.00 3.92Q4.50 3.92 4.09 4.12L4.09 4.12L4.09 4.12Q3.68 4.31 3.36 4.63L3.36 4.63L3.36 4.63Q3.03 4.96 2.79 5.38L2.79 5.38L2.79 5.38Q2.54 5.80 2.38 6.26L2.38 6.26L2.38 6.26Q2.22 6.72 2.14 7.19L2.14 7.19L2.14 7.19Q2.06 7.66 2.06 8.08L2.06 8.08L2.06 8.08Q2.06 8.50 2.15 8.96L2.15 8.96L2.15 8.96Q2.24 9.41 2.41 9.84L2.41 9.84L2.41 9.84Q2.58 10.28 2.83 10.67L2.83 10.67L2.83 10.67Q3.08 11.06 3.41 11.35L3.41 11.35L3.41 11.35Q3.75 11.65 4.15 11.82L4.15 11.82L4.15 11.82Q4.56 12.00 5.04 12.00L5.04 12.00L5.04 12.00Q5.37 12.00 5.68 11.91L5.68 11.91L5.68 11.91Q5.99 11.82 6.28 11.67L6.28 11.67L6.28 11.67Q6.56 11.52 6.82 11.31L6.82 11.31L6.82 11.31Q7.08 11.11 7.29 10.87L7.29 10.87L7.52 11.09L7.52 11.09Q7.22 11.48 6.81 11.85L6.81 11.85L6.81 11.85Q6.39 12.22 5.91 12.50L5.91 12.50L5.91 12.50Q5.43 12.78 4.91 12.95L4.91 12.95L4.91 12.95Q4.39 13.12 3.88 13.12L3.88 13.12L3.88 13.12Q3.38 13.12 2.94 12.94L2.94 12.94L2.94 12.94Q2.50 12.77 2.13 12.47L2.13 12.47L2.13 12.47Q1.76 12.17 1.47 11.77L1.47 11.77L1.47 11.77Q1.18 11.38 0.97 10.92L0.97 10.92L0.97 10.92Q0.77 10.47 0.67 9.99L0.67 9.99L0.67 9.99Q0.56 9.52 0.56 9.06L0.56 9.06L0.56 9.06Q0.56 8.39 0.78 7.69L0.78 7.69L0.78 7.69Q1.00 6.99 1.39 6.33L1.39 6.33L1.39 6.33Q1.78 5.67 2.31 5.09L2.31 5.09L2.31 5.09Q2.84 4.50 3.46 4.06L3.46 4.06L3.46 4.06Q4.07 3.62 4.73 3.37L4.73 3.37L4.73 3.37Q5.40 3.11 6.06 3.11L6.06 3.11L6.06 3.11Q6.47 3.11 6.83 3.23L6.83 3.23L6.83 3.23Q7.18 3.35 7.44 3.58L7.44 3.58L7.44 3.58Q7.70 3.80 7.85 4.14L7.85 4.14L7.85 4.14Q8.00 4.47 8.00 4.90ZM10.90 13.19L10.90 13.19L10.90 13.19Q10.39 13.19 9.95 13.01L9.95 13.01L9.95 13.01Q9.51 12.83 9.18 12.51L9.18 12.51L9.18 12.51Q8.86 12.19 8.67 11.75L8.67 11.75L8.67 11.75Q8.48 11.32 8.48 10.81L8.48 10.81L8.48 10.81Q8.48 10.23 8.67 9.72L8.67 9.72L8.67 9.72Q8.87 9.21 9.20 8.80L9.20 8.80L9.20 8.80Q9.54 8.39 10.00 8.09L10.00 8.09L10.00 8.09Q10.47 7.79 11.01 7.62L11.01 7.62L11.20 7.85L11.20 7.85Q10.90 8.08 10.63 8.37L10.63 8.37L10.63 8.37Q10.36 8.66 10.17 9.00L10.17 9.00L10.17 9.00Q9.97 9.34 9.85 9.71L9.85 9.71L9.85 9.71Q9.73 10.08 9.73 10.47L9.73 10.47L9.73 10.47Q9.73 10.80 9.83 11.16L9.83 11.16L9.83 11.16Q9.93 11.53 10.12 11.83L10.12 11.83L10.12 11.83Q10.31 12.13 10.60 12.32L10.60 12.32L10.60 12.32Q10.89 12.52 11.27 12.52L11.27 12.52L11.27 12.52Q11.61 12.52 11.86 12.39L11.86 12.39L11.86 12.39Q12.11 12.27 12.28 12.06L12.28 12.06L12.28 12.06Q12.44 11.85 12.52 11.56L12.52 11.56L12.52 11.56Q12.61 11.28 12.61 10.96L12.61 10.96L12.61 10.96Q12.61 10.60 12.46 10.21L12.46 10.21L12.46 10.21Q12.32 9.82 12.07 9.50L12.07 9.50L12.07 9.50Q11.82 9.17 11.48 8.95L11.48 8.95L11.48 8.95Q11.15 8.73 10.77 8.70L10.77 8.70L10.77 8.70Q11.01 8.42 11.29 8.19L11.29 8.19L11.29 8.19Q11.58 7.96 11.87 7.75L11.87 7.75L11.87 7.75Q12.27 7.88 12.57 8.13L12.57 8.13L12.57 8.13Q12.88 8.38 13.09 8.71L13.09 8.71L13.09 8.71Q13.30 9.04 13.41 9.42L13.41 9.42L13.41 9.42Q13.51 9.81 13.51 10.21L13.51 10.21L13.51 10.21Q13.51 10.75 13.33 11.28L13.33 11.28L13.33 11.28Q13.14 11.81 12.79 12.24L12.79 12.24L12.79 12.24Q12.45 12.67 11.97 12.93L11.97 12.93L11.97 12.93Q11.48 13.19 10.90 13.19ZM19.87 12.01L20.06 12.22L20.06 12.22Q19.98 12.40 19.85 12.56L19.85 12.56L19.85 12.56Q19.72 12.71 19.56 12.84L19.56 12.84L19.56 12.84Q19.41 12.96 19.22 13.03L19.22 13.03L19.22 13.03Q19.03 13.10 18.83 13.10L18.83 13.10L18.83 13.10Q18.29 13.10 18.05 12.81L18.05 12.81L18.05 12.81Q17.81 12.51 17.81 12.00L17.81 12.00L17.81 11.87L17.81 11.87Q17.69 12.11 17.54 12.34L17.54 12.34L17.54 12.34Q17.39 12.57 17.20 12.76L17.20 12.76L17.20 12.76Q17.00 12.94 16.76 13.06L16.76 13.06L16.76 13.06Q16.52 13.17 16.21 13.17L16.21 13.17L16.21 13.17Q15.76 13.17 15.41 12.99L15.41 12.99L15.41 12.99Q15.07 12.81 14.83 12.51L14.83 12.51L14.83 12.51Q14.60 12.20 14.48 11.80L14.48 11.80L14.48 11.80Q14.36 11.40 14.36 10.95L14.36 10.95L14.36 10.95Q14.36 10.38 14.54 9.80L14.54 9.80L14.54 9.80Q14.72 9.21 15.06 8.74L15.06 8.74L15.06 8.74Q15.40 8.27 15.90 7.97L15.90 7.97L15.90 7.97Q16.40 7.68 17.04 7.68L17.04 7.68L17.04 7.68Q17.44 7.68 17.81 7.87L17.81 7.87L17.81 3.67L19.07 3.23L19.07 12.03L19.07 12.03Q19.07 12.17 19.14 12.28L19.14 12.28L19.14 12.28Q19.20 12.39 19.35 12.39L19.35 12.39L19.35 12.39Q19.51 12.39 19.65 12.27L19.65 12.27L19.65 12.27Q19.78 12.14 19.87 12.01L19.87 12.01ZM17.81 10.17L17.81 10.17L17.81 8.71L17.81 8.71Q17.65 8.55 17.46 8.45L17.46 8.45L17.46 8.45Q17.26 8.35 17.03 8.35L17.03 8.35L17.03 8.35Q16.63 8.35 16.34 8.57L16.34 8.57L16.34 8.57Q16.06 8.78 15.89 9.11L15.89 9.11L15.89 9.11Q15.71 9.44 15.63 9.82L15.63 9.82L15.63 9.82Q15.54 10.20 15.54 10.53L15.54 10.53L15.54 10.53Q15.54 10.79 15.60 11.11L15.60 11.11L15.60 11.11Q15.65 11.44 15.77 11.72L15.77 11.72L15.77 11.72Q15.90 12.00 16.11 12.20L16.11 12.20L16.11 12.20Q16.32 12.39 16.63 12.39L16.63 12.39L16.63 12.39Q16.88 12.39 17.07 12.28L17.07 12.28L17.07 12.28Q17.26 12.17 17.39 11.99L17.39 11.99L17.39 11.99Q17.52 11.81 17.60 11.57L17.60 11.57L17.60 11.57Q17.68 11.33 17.73 11.09L17.73 11.09L17.73 11.09Q17.77 10.84 17.79 10.60L17.79 10.60L17.79 10.60Q17.81 10.36 17.81 10.17ZM25.27 11.48L25.48 11.70L25.48 11.70Q25.24 12.01 24.95 12.28L24.95 12.28L24.95 12.28Q24.67 12.54 24.34 12.74L24.34 12.74L24.34 12.74Q24.01 12.94 23.64 13.06L23.64 13.06L23.64 13.06Q23.27 13.17 22.87 13.17L22.87 13.17L22.87 13.17Q22.37 13.17 21.94 12.99L21.94 12.99L21.94 12.99Q21.52 12.81 21.21 12.49L21.21 12.49L21.21 12.49Q20.90 12.17 20.73 11.74L20.73 11.74L20.73 11.74Q20.56 11.31 20.56 10.81L20.56 10.81L20.56 10.81Q20.56 10.40 20.68 10.00L20.68 10.00L20.68 10.00Q20.79 9.60 21.01 9.26L21.01 9.26L21.01 9.26Q21.22 8.91 21.51 8.61L21.51 8.61L21.51 8.61Q21.80 8.31 22.15 8.10L22.15 8.10L22.15 8.10Q22.50 7.89 22.89 7.77L22.89 7.77L22.89 7.77Q23.28 7.65 23.69 7.65L23.69 7.65L23.69 7.65Q23.97 7.65 24.23 7.72L24.23 7.72L24.23 7.72Q24.49 7.79 24.68 7.93L24.68 7.93L24.68 7.93Q24.88 8.08 25.00 8.31L25.00 8.31L25.00 8.31Q25.12 8.54 25.12 8.85L25.12 8.85L25.12 8.85Q25.12 9.11 24.96 9.40L24.96 9.40L24.96 9.40Q24.81 9.69 24.56 9.97L24.56 9.97L24.56 9.97Q24.31 10.26 23.99 10.54L23.99 10.54L23.99 10.54Q23.68 10.81 23.35 11.05L23.35 11.05L23.35 11.05Q23.03 11.29 22.73 11.46L22.73 11.46L22.73 11.46Q22.43 11.64 22.20 11.74L22.20 11.74L22.20 11.74Q22.46 12.05 22.79 12.25L22.79 12.25L22.79 12.25Q23.13 12.45 23.50 12.45L23.50 12.45L23.50 12.45Q23.74 12.45 23.99 12.36L23.99 12.36L23.99 12.36Q24.23 12.26 24.46 12.12L24.46 12.12L24.46 12.12Q24.69 11.98 24.90 11.81L24.90 11.81L24.90 11.81Q25.11 11.63 25.27 11.48L25.27 11.48ZM23.83 9.11L23.83 9.11L23.83 9.11Q23.83 8.95 23.78 8.80L23.78 8.80L23.78 8.80Q23.73 8.66 23.63 8.56L23.63 8.56L23.63 8.56Q23.54 8.45 23.40 8.38L23.40 8.38L23.40 8.38Q23.27 8.32 23.10 8.32L23.10 8.32L23.10 8.32Q22.79 8.32 22.53 8.53L22.53 8.53L22.53 8.53Q22.27 8.75 22.08 9.06L22.08 9.06L22.08 9.06Q21.90 9.38 21.79 9.73L21.79 9.73L21.79 9.73Q21.68 10.08 21.68 10.35L21.68 10.35L21.68 10.35Q21.68 10.61 21.77 10.88L21.77 10.88L21.77 10.88Q21.85 11.16 21.99 11.41L21.99 11.41L21.99 11.41Q22.26 11.26 22.59 10.99L22.59 10.99L22.59 10.99Q22.91 10.73 23.18 10.41L23.18 10.41L23.18 10.41Q23.46 10.09 23.65 9.75L23.65 9.75L23.65 9.75Q23.83 9.41 23.83 9.11ZM37.08 9.94L37.08 9.94L37.08 9.94Q37.08 10.63 36.80 11.20L36.80 11.20L36.80 11.20Q36.52 11.76 36.04 12.22L36.04 12.22L36.04 12.22Q35.57 12.67 34.96 13.01L34.96 13.01L34.96 13.01Q34.34 13.34 33.68 13.57L33.68 13.57L33.68 13.57Q33.02 13.80 32.36 13.92L32.36 13.92L32.36 13.92Q31.71 14.04 31.14 14.06L31.14 14.06L31.05 13.72L31.05 13.72Q31.50 13.62 32.01 13.47L32.01 13.47L32.01 13.47Q32.51 13.32 33.01 13.09L33.01 13.09L33.01 13.09Q33.50 12.87 33.95 12.58L33.95 12.58L33.95 12.58Q34.40 12.28 34.74 11.90L34.74 11.90L34.74 11.90Q35.08 11.53 35.28 11.06L35.28 11.06L35.28 11.06Q35.49 10.60 35.49 10.04L35.49 10.04L35.49 10.04Q35.49 9.62 35.29 9.27L35.29 9.27L35.29 9.27Q35.10 8.93 34.78 8.69L34.78 8.69L34.78 8.69Q34.47 8.44 34.08 8.31L34.08 8.31L34.08 8.31Q33.69 8.18 33.29 8.18L33.29 8.18L33.29 8.18Q32.82 8.18 32.36 8.29L32.36 8.29L32.36 8.29Q31.90 8.40 31.46 8.57L31.46 8.57L31.34 8.29L31.34 8.29Q31.65 8.16 32.00 7.96L32.00 7.96L32.00 7.96Q32.34 7.77 32.67 7.54L32.67 7.54L32.67 7.54Q33.00 7.30 33.30 7.02L33.30 7.02L33.30 7.02Q33.61 6.73 33.83 6.41L33.83 6.41L33.83 6.41Q34.06 6.08 34.20 5.73L34.20 5.73L34.20 5.73Q34.34 5.37 34.34 4.97L34.34 4.97L34.34 4.97Q34.34 4.72 34.26 4.51L34.26 4.51L34.26 4.51Q34.18 4.30 34.03 4.15L34.03 4.15L34.03 4.15Q33.88 3.99 33.67 3.91L33.67 3.91L33.67 3.91Q33.46 3.82 33.21 3.82L33.21 3.82L33.21 3.82Q32.80 3.82 32.49 4.00L32.49 4.00L32.49 4.00Q32.18 4.18 31.95 4.47L31.95 4.47L31.95 4.47Q31.72 4.76 31.56 5.14L31.56 5.14L31.56 5.14Q31.41 5.52 31.32 5.92L31.32 5.92L31.32 5.92Q31.23 6.32 31.19 6.70L31.19 6.70L31.19 6.70Q31.14 7.09 31.14 7.40L31.14 7.40L31.14 12.67L29.74 13.17L29.74 8.15L29.74 8.15Q29.74 7.49 29.89 6.86L29.89 6.86L29.89 6.86Q30.04 6.23 30.32 5.66L30.32 5.66L30.32 5.66Q30.60 5.10 31.01 4.63L31.01 4.63L31.01 4.63Q31.42 4.16 31.93 3.82L31.93 3.82L31.93 3.82Q32.44 3.48 33.04 3.29L33.04 3.29L33.04 3.29Q33.65 3.10 34.32 3.10L34.32 3.10L34.32 3.10Q34.63 3.10 34.92 3.18L34.92 3.18L34.92 3.18Q35.21 3.26 35.42 3.43L35.42 3.43L35.42 3.43Q35.64 3.60 35.77 3.86L35.77 3.86L35.77 3.86Q35.90 4.11 35.90 4.44L35.90 4.44L35.90 4.44Q35.90 4.81 35.75 5.16L35.75 5.16L35.75 5.16Q35.60 5.51 35.36 5.84L35.36 5.84L35.36 5.84Q35.11 6.18 34.79 6.48L34.79 6.48L34.79 6.48Q34.48 6.79 34.14 7.05L34.14 7.05L34.14 7.05Q33.80 7.31 33.47 7.51L33.47 7.51L33.47 7.51Q33.13 7.72 32.85 7.85L32.85 7.85L32.85 7.85Q33.55 7.69 34.28 7.69L34.28 7.69L34.28 7.69Q34.82 7.69 35.32 7.82L35.32 7.82L35.32 7.82Q35.82 7.94 36.21 8.21L36.21 8.21L36.21 8.21Q36.61 8.48 36.85 8.91L36.85 8.91L36.85 8.91Q37.08 9.34 37.08 9.94ZM38.08 4.61L39.52 4.12L39.16 6.61L38.49 6.82L38.08 4.61ZM40.28 12.03L40.46 12.24L40.46 12.24Q40.30 12.57 40.10 12.75L40.10 12.75L40.10 12.75Q39.89 12.93 39.70 13.01L39.70 13.01L39.70 13.01Q39.47 13.10 39.24 13.12L39.24 13.12L39.24 13.12Q38.94 13.12 38.74 13.02L38.74 13.02L38.74 13.02Q38.54 12.93 38.42 12.77L38.42 12.77L38.42 12.77Q38.31 12.61 38.26 12.41L38.26 12.41L38.26 12.41Q38.22 12.22 38.22 12.01L38.22 12.01L38.22 8.18L39.48 7.75L39.48 12.04L39.48 12.04Q39.48 12.21 39.55 12.30L39.55 12.30L39.55 12.30Q39.63 12.40 39.75 12.40L39.75 12.40L39.75 12.40Q39.87 12.41 40.01 12.32L40.01 12.32L40.01 12.32Q40.15 12.23 40.28 12.03L40.28 12.03ZM46.76 12.03L46.96 12.24L46.96 12.24Q46.87 12.41 46.74 12.57L46.74 12.57L46.74 12.57Q46.61 12.73 46.45 12.85L46.45 12.85L46.45 12.85Q46.29 12.97 46.11 13.05L46.11 13.05L46.11 13.05Q45.92 13.12 45.73 13.12L45.73 13.12L45.73 13.12Q45.19 13.12 44.94 12.82L44.94 12.82L44.94 12.82Q44.70 12.52 44.70 12.01L44.70 12.01L44.70 9.23L44.70 9.23Q44.70 9.18 44.70 9.12L44.70 9.12L44.70 9.12Q44.69 9.05 44.67 8.99L44.67 8.99L44.67 8.99Q44.65 8.93 44.62 8.89L44.62 8.89L44.62 8.89Q44.58 8.85 44.52 8.85L44.52 8.85L44.52 8.85Q44.33 8.85 44.14 9.08L44.14 9.08L44.14 9.08Q43.94 9.32 43.76 9.69L43.76 9.69L43.76 9.69Q43.58 10.06 43.43 10.51L43.43 10.51L43.43 10.51Q43.27 10.97 43.16 11.42L43.16 11.42L43.16 11.42Q43.04 11.87 42.97 12.26L42.97 12.26L42.97 12.26Q42.91 12.65 42.91 12.88L42.91 12.88L41.67 13.32L41.67 8.72L41.67 8.72Q41.67 8.59 41.60 8.47L41.60 8.47L41.60 8.47Q41.53 8.36 41.38 8.36L41.38 8.36L41.38 8.36Q41.21 8.36 41.07 8.49L41.07 8.49L41.07 8.49Q40.93 8.61 40.85 8.74L40.85 8.74L40.67 8.53L40.67 8.53Q40.75 8.36 40.88 8.20L40.88 8.20L40.88 8.20Q41.00 8.04 41.16 7.92L41.16 7.92L41.16 7.92Q41.32 7.79 41.51 7.72L41.51 7.72L41.51 7.72Q41.70 7.65 41.90 7.65L41.90 7.65L41.90 7.65Q42.44 7.65 42.67 7.95L42.67 7.95L42.67 7.95Q42.91 8.24 42.91 8.75L42.91 8.75L42.91 10.98L42.91 10.98Q42.97 10.70 43.08 10.34L43.08 10.34L43.08 10.34Q43.18 9.98 43.33 9.61L43.33 9.61L43.33 9.61Q43.48 9.24 43.67 8.89L43.67 8.89L43.67 8.89Q43.86 8.54 44.08 8.26L44.08 8.26L44.08 8.26Q44.31 7.98 44.58 7.82L44.58 7.82L44.58 7.82Q44.84 7.65 45.15 7.65L45.15 7.65L45.15 7.65Q45.47 7.65 45.64 7.79L45.64 7.79L45.64 7.79Q45.80 7.93 45.87 8.15L45.87 8.15L45.87 8.15Q45.94 8.36 45.95 8.62L45.95 8.62L45.95 8.62Q45.96 8.88 45.96 9.12L45.96 9.12L45.96 12.04L45.96 12.04Q45.96 12.18 46.03 12.29L46.03 12.29L46.03 12.29Q46.09 12.41 46.24 12.41L46.24 12.41L46.24 12.41Q46.40 12.41 46.54 12.28L46.54 12.28L46.54 12.28Q46.68 12.15 46.76 12.03L46.76 12.03Z"></path></g><defs data-v-fde0c5aa=""><!----></defs><g data-v-fde0c5aa="" id="c140d757-60a2-4c39-92e1-7140807c8afb" stroke="none" fill="#1E0B36" transform="matrix(0.9534326317665208,0,0,0.9534326317665208,98.74441440690401,52.66993092791864)"><circle cx="53.759" cy="19.742" r="12.242"></circle><circle cx="20.238" cy="35.55" r="9.965"></circle><path d="M47.633 92.602c-6.214-3.746-23.203-15.154-31.437-32.301-3.363-7.002-.865-9.157 2.386-12.903a9.922 9.922 0 0 0 7.059-.593 9.922 9.922 0 0 0 4.878-5.138c1.059-.042 2.039-.101 2.96-.102a26.797 26.797 0 0 0-.204 3.444c0 10.253 2.387 21.276 7.093 32.763a124.851 124.851 0 0 0 7.271 14.795l-.006.035z"></path><path d="M36.119 45.007c0-9.543 3.912-10.601 9.504-13.022a12.195 12.195 0 0 0 8.136 3.097c3.125 0 5.972-1.171 8.136-3.097 5.592 2.421 9.504 3.48 9.504 13.022 0 23.37-12.748 45.039-17.64 52.493-4.891-7.454-17.64-29.122-17.64-52.493z"></path><path d="M91.321 60.301c-8.233 17.148-25.222 28.555-31.437 32.301a.25.25 0 0 0-.006-.038c2.229-3.875 4.875-8.949 7.271-14.795 4.707-11.487 7.093-22.51 7.093-32.763 0-1.254-.069-2.396-.204-3.444.921 0 1.9.06 2.96.102a9.918 9.918 0 0 0 4.878 5.138 9.923 9.923 0 0 0 7.059.593c3.251 3.749 5.749 5.905 2.386 12.906z"></path><circle cx="87.28" cy="35.55" r="9.965"></circle></g><defs data-v-fde0c5aa=""><!----></defs><g data-v-fde0c5aa="" id="bb9d5d1f-3e2d-4868-8743-be283bae00ac" fill="#000000" transform="matrix(0.5141049466799239,0,0,0.5141049466799239,52.124703379117896,233.55251073050442)"><path d="M0.73 5.77C0.73 9.07 5.71 8.20 5.71 10.65C5.71 11.59 4.87 12.31 3.89 12.31C3.07 12.31 1.47 11.83 1.44 11.47L1.36 10.15C1.34 9.97 1.27 9.91 1.09 9.91L1.02 9.91C0.81 9.91 0.81 10.00 0.81 10.12C0.81 10.32 0.92 11.66 0.95 12.17C0.97 12.38 2.23 12.85 3.77 12.85C5.33 12.85 6.94 11.87 6.94 10.11C6.94 6.79 1.97 7.87 1.97 5.32C1.97 4.31 2.76 3.56 3.79 3.56C4.82 3.56 5.91 4.58 5.91 4.89C5.91 5.01 5.87 5.73 5.87 5.78C5.87 5.92 5.91 5.99 6.17 5.99C6.41 5.99 6.43 5.94 6.43 5.75C6.43 5.04 6.51 3.68 6.51 3.53C6.51 3.30 6.47 3.29 6.20 3.29C5.98 3.29 5.96 3.32 5.95 3.53C5.95 3.61 5.94 3.78 5.89 3.78C5.84 3.78 5.75 3.74 5.68 3.68C4.89 3.14 4.27 3.08 3.77 3.08C2.24 3.08 0.73 4.17 0.73 5.77ZM14.91 12.39C14.91 12.63 14.91 12.68 15.11 12.68C15.43 12.68 16.37 12.64 16.79 12.64C17.21 12.64 18.03 12.68 18.35 12.68C18.52 12.68 18.52 12.61 18.52 12.40C18.52 12.24 18.52 12.18 18.35 12.18L17.43 12.18C17.35 12.18 17.30 9.93 17.30 8.20C17.30 8.01 17.30 8.01 17.43 8.01L22.67 8.01C22.74 8.01 22.75 8.01 22.75 8.18L22.75 9.91C22.75 11.05 22.74 12.18 22.68 12.18L21.91 12.18C21.69 12.18 21.64 12.19 21.64 12.39C21.64 12.63 21.66 12.68 21.85 12.68C22.18 12.68 23.02 12.64 23.44 12.64C23.86 12.64 24.44 12.68 24.77 12.68C24.93 12.68 24.95 12.61 24.95 12.40C24.95 12.24 24.93 12.18 24.77 12.18L24.02 12.18C23.98 12.18 23.97 9.27 23.97 7.04C23.97 5.40 23.97 3.70 24.01 3.70L24.63 3.70C24.85 3.70 24.89 3.68 24.89 3.49C24.89 3.25 24.88 3.19 24.68 3.19C24.54 3.19 23.91 3.23 23.32 3.23C22.65 3.23 22.05 3.19 21.83 3.19C21.63 3.19 21.60 3.22 21.60 3.44C21.60 3.67 21.67 3.70 21.84 3.70L22.64 3.70C22.69 3.70 22.75 4.79 22.75 5.71L22.75 7.42C22.75 7.59 22.75 7.59 22.58 7.59L17.47 7.59C17.30 7.59 17.30 7.59 17.30 7.38C17.30 6.96 17.29 6.23 17.29 5.53C17.29 4.66 17.30 3.70 17.36 3.70L18.13 3.70C18.35 3.70 18.40 3.68 18.40 3.49C18.40 3.25 18.38 3.19 18.19 3.19C17.86 3.19 17.28 3.23 16.67 3.23C16.09 3.23 15.60 3.19 15.37 3.19C15.19 3.19 15.09 3.21 15.09 3.44C15.09 3.68 15.20 3.70 15.37 3.70L15.99 3.70C16.04 3.70 16.06 5.59 16.06 7.18L16.06 8.61C16.06 10.08 16.04 12.18 15.97 12.18L15.16 12.18C14.94 12.18 14.91 12.19 14.91 12.39ZM32.84 12.39C32.84 12.63 32.84 12.68 33.04 12.68C33.21 12.68 33.53 12.64 34.10 12.64C34.72 12.64 35.27 12.68 35.42 12.68C35.59 12.68 35.59 12.61 35.59 12.40C35.59 12.24 35.59 12.18 35.42 12.18L34.34 12.18C34.34 12.18 34.33 12.18 34.33 12.17C34.34 11.87 35.11 9.90 35.46 9.02C35.53 8.83 35.55 8.79 35.76 8.79L38.58 8.79C38.72 8.79 38.72 8.81 38.79 9.03C39.06 9.77 39.77 11.89 39.77 12.17C39.77 12.18 39.76 12.18 39.76 12.18L38.99 12.18C38.77 12.18 38.75 12.19 38.75 12.39C38.75 12.63 38.77 12.68 38.93 12.68C39.26 12.68 40.12 12.64 40.54 12.64C40.96 12.64 41.64 12.68 41.85 12.68C41.99 12.68 42 12.61 42 12.40C42 12.24 41.99 12.18 41.85 12.18L41.36 12.18C41.26 12.18 40.24 9.34 39.68 7.78L38.00 3.07C37.98 3.00 37.91 2.94 37.83 2.94C37.70 2.94 37.60 3.16 37.52 3.35C37.37 3.71 37.13 3.84 37.02 4.13L35.53 7.57C35.35 8.01 33.64 12.18 33.52 12.18L33.10 12.18C32.87 12.18 32.84 12.19 32.84 12.39ZM35.74 8.33C35.74 8.30 35.77 8.23 35.81 8.13L37.18 4.77C37.23 4.66 37.25 4.61 37.28 4.61C37.30 4.61 37.31 4.63 37.35 4.77L38.51 8.18C38.54 8.25 38.56 8.29 38.56 8.32C38.56 8.36 38.53 8.37 38.43 8.37L35.92 8.37C35.74 8.37 35.74 8.34 35.74 8.33ZM49.76 3.51C49.76 3.72 49.83 3.79 50.02 3.79L50.83 3.77C50.93 3.77 50.97 6.61 50.97 8.55L50.97 10.42C50.97 11.30 50.96 12.18 50.92 12.18L50.32 12.18C50.09 12.18 50.02 12.19 50.02 12.39C50.02 12.63 50.06 12.68 50.26 12.68C50.39 12.68 51.21 12.64 51.63 12.64C52.05 12.64 52.82 12.68 53.14 12.68C53.31 12.68 53.34 12.61 53.34 12.40C53.34 12.24 53.31 12.18 53.14 12.18L52.33 12.18C52.26 12.18 52.18 9.18 52.18 8.37C52.18 8.30 52.18 8.26 52.29 8.26C52.68 8.26 53.28 8.27 53.58 8.27C55.82 8.32 55.96 10.00 55.96 11.68L55.96 12.49C55.96 12.61 56.01 12.64 56.11 12.64C56.11 12.64 57.55 12.68 58.03 12.68C58.20 12.68 58.25 12.64 58.25 12.53C58.25 12.24 58.20 12.18 58.04 12.18L57.40 12.18C57.30 12.18 57.27 12.14 57.25 11.31C57.16 8.99 55.79 8.34 54.88 8.05C54.74 8.01 54.77 8.01 54.88 7.95C55.47 7.69 56.78 6.94 56.78 5.63C56.78 3.63 55.09 3.21 53.69 3.21C53.37 3.21 52.08 3.29 51.66 3.29C51.24 3.29 50.26 3.26 50.04 3.26C49.85 3.26 49.76 3.28 49.76 3.51ZM52.18 7.80L52.18 4.40C52.18 4.05 52.21 3.68 52.25 3.68C52.46 3.65 52.74 3.65 52.96 3.65C54.26 3.65 55.51 4.47 55.51 5.82C55.51 6.99 54.96 7.57 54.31 7.88C54.26 7.90 54.22 7.90 54.15 7.90C53.68 7.88 52.96 7.88 52.36 7.87C52.19 7.87 52.18 7.85 52.18 7.80ZM65.73 12.39C65.73 12.63 65.76 12.68 65.95 12.68C66.28 12.68 67.24 12.64 67.66 12.64C68.08 12.64 72.59 12.68 72.91 12.68C73.04 12.68 73.19 12.66 73.19 12.49C73.19 12.07 73.23 11.23 73.23 10.53C73.23 10.39 73.08 10.39 72.95 10.39C72.84 10.39 72.72 10.39 72.72 10.51C72.70 11.06 72.70 11.41 72.67 11.76C72.65 12.01 72.65 12.04 72.55 12.04C72.39 12.04 69.76 12.08 68.26 12.08C68.19 12.08 68.15 10.11 68.11 8.26C68.11 8.06 68.15 8.09 68.29 8.09L70.57 8.09C71.27 8.09 71.30 8.20 71.30 8.30L71.30 9.00C71.30 9.14 71.48 9.14 71.60 9.14C71.69 9.14 71.82 9.13 71.82 9.02C71.82 8.83 71.79 8.33 71.79 7.83C71.79 7.32 71.82 6.83 71.82 6.71C71.82 6.59 71.68 6.58 71.58 6.58C71.47 6.58 71.30 6.59 71.30 6.72L71.30 7.45C71.30 7.62 70.85 7.63 70.57 7.63L68.24 7.63C68.12 7.63 68.11 7.63 68.11 7.45C68.10 6.75 68.08 6.06 68.08 5.46C68.08 5.12 68.08 3.71 68.17 3.71C69.40 3.71 71.90 3.75 71.90 3.81C71.90 3.99 71.86 4.83 71.86 4.89C71.86 5.04 71.93 5.10 72.11 5.10C72.31 5.10 72.38 5.08 72.38 4.94C72.38 3.85 72.44 3.36 72.44 3.09C72.44 2.91 72.35 2.90 72.16 2.90C71.96 2.90 71.96 2.95 71.93 3.11C71.92 3.25 71.99 3.25 71.08 3.25C70.46 3.25 68.32 3.29 67.55 3.29C67.06 3.29 66.12 3.25 66.02 3.25C65.90 3.25 65.84 3.30 65.84 3.49C65.84 3.72 65.91 3.74 66.08 3.74L66.74 3.74C66.79 3.74 66.86 4.79 66.86 5.71C66.86 5.80 66.92 8.27 66.92 9.83L66.92 11.17C66.92 11.84 66.89 12.18 66.86 12.18L66.01 12.18C65.79 12.18 65.73 12.21 65.73 12.39ZM90.86 12.39C90.86 12.63 90.86 12.68 91.06 12.68C91.22 12.68 91.55 12.64 92.12 12.64C92.74 12.64 93.28 12.68 93.44 12.68C93.60 12.68 93.60 12.61 93.60 12.40C93.60 12.24 93.60 12.18 93.44 12.18L92.36 12.18C92.36 12.18 92.34 12.18 92.34 12.17C92.36 11.87 93.13 9.90 93.48 9.02C93.55 8.83 93.56 8.79 93.77 8.79L96.60 8.79C96.74 8.79 96.74 8.81 96.81 9.03C97.08 9.77 97.79 11.89 97.79 12.17C97.79 12.18 97.78 12.18 97.78 12.18L97.01 12.18C96.78 12.18 96.77 12.19 96.77 12.39C96.77 12.63 96.78 12.68 96.95 12.68C97.27 12.68 98.14 12.64 98.56 12.64C98.98 12.64 99.65 12.68 99.86 12.68C100.00 12.68 100.02 12.61 100.02 12.40C100.02 12.24 100.00 12.18 99.86 12.18L99.37 12.18C99.27 12.18 98.25 9.34 97.69 7.78L96.01 3.07C96.00 3.00 95.93 2.94 95.84 2.94C95.72 2.94 95.62 3.16 95.54 3.35C95.38 3.71 95.14 3.84 95.03 4.13L93.55 7.57C93.37 8.01 91.66 12.18 91.53 12.18L91.11 12.18C90.89 12.18 90.86 12.19 90.86 12.39ZM93.76 8.33C93.76 8.30 93.79 8.23 93.83 8.13L95.20 4.77C95.24 4.66 95.27 4.61 95.30 4.61C95.31 4.61 95.33 4.63 95.37 4.77L96.53 8.18C96.56 8.25 96.57 8.29 96.57 8.32C96.57 8.36 96.54 8.37 96.45 8.37L93.94 8.37C93.76 8.37 93.76 8.34 93.76 8.33ZM107.77 12.39C107.77 12.63 107.79 12.68 107.98 12.68C108.16 12.68 108.54 12.64 109.16 12.64C109.79 12.64 110.35 12.68 110.67 12.68C110.84 12.68 110.84 12.61 110.84 12.40C110.84 12.24 110.84 12.18 110.67 12.18L109.47 12.18C109.42 12.18 109.41 11.54 109.41 10.79C109.41 9.46 109.42 7.48 109.42 5.99C109.42 5.25 109.42 4.84 109.44 4.28C109.44 4.02 109.51 4.14 109.63 4.28L116.52 12.66C116.61 12.75 116.69 12.89 116.80 12.89C116.91 12.89 116.98 12.77 116.98 12.54C116.98 12.39 117.15 6.65 117.17 4.48C117.17 4.06 117.19 3.70 117.22 3.70L117.85 3.70C118.08 3.70 118.13 3.68 118.13 3.49C118.13 3.25 118.13 3.19 117.94 3.19C117.74 3.19 117.31 3.23 116.75 3.23C116.13 3.23 115.33 3.19 115.23 3.19C115.07 3.19 115.07 3.26 115.07 3.47C115.07 3.64 115.07 3.70 115.23 3.70L116.54 3.70C116.55 3.70 116.55 4.33 116.55 4.44C116.55 5.85 116.58 8.33 116.58 9.70L116.58 10.29C116.58 10.57 116.56 10.65 116.34 10.37L110.66 3.39C110.54 3.25 110.52 3.19 110.35 3.19C110.26 3.19 109.89 3.23 109.58 3.23C109.28 3.23 108.21 3.19 108.01 3.19C107.84 3.19 107.81 3.26 107.81 3.47C107.81 3.64 107.84 3.70 108.01 3.70L108.92 3.70C108.92 4.17 108.88 8.53 108.81 10.79C108.78 11.69 108.79 12.18 108.68 12.18L108.04 12.18C107.81 12.18 107.77 12.19 107.77 12.39ZM126.10 12.46C126.10 12.63 126.11 12.70 126.29 12.70C126.45 12.70 127.68 12.64 128.07 12.64C128.93 12.64 129.81 12.70 130.66 12.70C133.28 12.70 135.67 11.07 135.67 7.91C135.67 4.89 133.34 3.07 130.30 3.07C129.74 3.07 128.48 3.23 127.44 3.23C126.97 3.23 126.50 3.22 126.45 3.22C126.27 3.22 126.25 3.32 126.25 3.49C126.25 3.68 126.32 3.70 126.45 3.70L127.41 3.67C127.44 3.67 127.44 4.20 127.44 4.72C127.44 5.91 127.36 12.21 127.27 12.21L126.38 12.21C126.20 12.21 126.10 12.22 126.10 12.46ZM128.67 11.40C128.67 9.46 128.67 7.52 128.69 5.60C128.69 5.03 128.73 3.61 128.77 3.60C129.07 3.53 129.65 3.51 130.00 3.51C132.57 3.51 134.18 5.75 134.18 7.73C134.18 8.95 134.13 12.25 129.46 12.25C129.19 12.25 128.79 12.25 128.69 12.21C128.67 12.19 128.67 11.79 128.67 11.40ZM153.58 12.39C153.58 12.63 153.61 12.68 153.80 12.68C154.13 12.68 155.09 12.64 155.51 12.64C155.93 12.64 160.29 12.68 160.61 12.68C160.87 12.68 160.94 12.66 160.96 12.49C161.01 12.08 161.25 10.72 161.25 10.60C161.25 10.47 161.10 10.44 160.93 10.43C160.83 10.42 160.75 10.46 160.73 10.56L160.57 11.76C160.52 12.05 160.51 12.03 160.29 12.04C160.13 12.05 157.63 12.12 156.20 12.12C156.16 12.12 156.11 11.38 156.11 10.54L156.11 6.66C156.11 5.40 156.13 3.70 156.23 3.70L157.21 3.70C157.44 3.70 157.47 3.63 157.47 3.44C157.47 3.23 157.46 3.19 157.22 3.19C156.90 3.19 155.96 3.23 155.54 3.23C155.12 3.23 154.18 3.19 153.96 3.19C153.73 3.19 153.68 3.22 153.68 3.44C153.68 3.65 153.72 3.70 153.92 3.70L154.74 3.70C154.78 3.70 154.81 4.23 154.81 4.90L154.81 8.13C154.81 10.07 154.78 12.18 154.70 12.18L153.86 12.18C153.64 12.18 153.58 12.21 153.58 12.39ZM168.87 12.39C168.87 12.63 168.90 12.68 169.09 12.68C169.41 12.68 170.38 12.64 170.80 12.64C171.22 12.64 175.73 12.68 176.05 12.68C176.18 12.68 176.33 12.66 176.33 12.49C176.33 12.07 176.37 11.23 176.37 10.53C176.37 10.39 176.22 10.39 176.09 10.39C175.98 10.39 175.85 10.39 175.85 10.51C175.84 11.06 175.84 11.41 175.81 11.76C175.78 12.01 175.78 12.04 175.69 12.04C175.53 12.04 172.90 12.08 171.40 12.08C171.33 12.08 171.29 10.11 171.25 8.26C171.25 8.06 171.29 8.09 171.43 8.09L173.71 8.09C174.41 8.09 174.44 8.20 174.44 8.30L174.44 9.00C174.44 9.14 174.62 9.14 174.73 9.14C174.83 9.14 174.96 9.13 174.96 9.02C174.96 8.83 174.93 8.33 174.93 7.83C174.93 7.32 174.96 6.83 174.96 6.71C174.96 6.59 174.82 6.58 174.72 6.58C174.61 6.58 174.44 6.59 174.44 6.72L174.44 7.45C174.44 7.62 173.99 7.63 173.71 7.63L171.37 7.63C171.26 7.63 171.25 7.63 171.25 7.45C171.23 6.75 171.22 6.06 171.22 5.46C171.22 5.12 171.22 3.71 171.30 3.71C172.54 3.71 175.04 3.75 175.04 3.81C175.04 3.99 175.00 4.83 175.00 4.89C175.00 5.04 175.07 5.10 175.25 5.10C175.45 5.10 175.52 5.08 175.52 4.94C175.52 3.85 175.57 3.36 175.57 3.09C175.57 2.91 175.49 2.90 175.29 2.90C175.10 2.90 175.10 2.95 175.07 3.11C175.06 3.25 175.13 3.25 174.22 3.25C173.60 3.25 171.46 3.29 170.69 3.29C170.20 3.29 169.26 3.25 169.16 3.25C169.04 3.25 168.98 3.30 168.98 3.49C168.98 3.72 169.05 3.74 169.22 3.74L169.88 3.74C169.93 3.74 170.00 4.79 170.00 5.71C170.00 5.80 170.06 8.27 170.06 9.83L170.06 11.17C170.06 11.84 170.03 12.18 170.00 12.18L169.15 12.18C168.92 12.18 168.87 12.21 168.87 12.39ZM184.20 12.39C184.20 12.63 184.20 12.68 184.39 12.68C184.56 12.68 184.88 12.64 185.46 12.64C186.07 12.64 186.62 12.68 186.77 12.68C186.94 12.68 186.94 12.61 186.94 12.40C186.94 12.24 186.94 12.18 186.77 12.18L185.70 12.18C185.70 12.18 185.68 12.18 185.68 12.17C185.70 11.87 186.47 9.90 186.82 9.02C186.89 8.83 186.90 8.79 187.11 8.79L189.94 8.79C190.08 8.79 190.08 8.81 190.15 9.03C190.41 9.77 191.13 11.89 191.13 12.17C191.13 12.18 191.11 12.18 191.11 12.18L190.34 12.18C190.12 12.18 190.11 12.19 190.11 12.39C190.11 12.63 190.12 12.68 190.29 12.68C190.61 12.68 191.48 12.64 191.90 12.64C192.32 12.64 192.99 12.68 193.20 12.68C193.34 12.68 193.35 12.61 193.35 12.40C193.35 12.24 193.34 12.18 193.20 12.18L192.71 12.18C192.61 12.18 191.59 9.34 191.03 7.78L189.35 3.07C189.34 3.00 189.27 2.94 189.18 2.94C189.06 2.94 188.96 3.16 188.87 3.35C188.72 3.71 188.48 3.84 188.37 4.13L186.89 7.57C186.70 8.01 185.00 12.18 184.87 12.18L184.45 12.18C184.23 12.18 184.20 12.19 184.20 12.39ZM187.10 8.33C187.10 8.30 187.12 8.23 187.17 8.13L188.54 4.77C188.58 4.66 188.61 4.61 188.64 4.61C188.65 4.61 188.66 4.63 188.71 4.77L189.87 8.18C189.90 8.25 189.91 8.29 189.91 8.32C189.91 8.36 189.88 8.37 189.78 8.37L187.28 8.37C187.10 8.37 187.10 8.34 187.10 8.33ZM201.11 3.51C201.11 3.72 201.18 3.79 201.38 3.79L202.19 3.77C202.29 3.77 202.33 6.61 202.33 8.55L202.33 10.42C202.33 11.30 202.31 12.18 202.27 12.18L201.67 12.18C201.45 12.18 201.38 12.19 201.38 12.39C201.38 12.63 201.42 12.68 201.61 12.68C201.74 12.68 202.57 12.64 202.99 12.64C203.41 12.64 204.18 12.68 204.50 12.68C204.67 12.68 204.69 12.61 204.69 12.40C204.69 12.24 204.67 12.18 204.50 12.18L203.69 12.18C203.62 12.18 203.53 9.18 203.53 8.37C203.53 8.30 203.53 8.26 203.64 8.26C204.04 8.26 204.64 8.27 204.93 8.27C207.17 8.32 207.31 10.00 207.31 11.68L207.31 12.49C207.31 12.61 207.37 12.64 207.47 12.64C207.47 12.64 208.91 12.68 209.38 12.68C209.55 12.68 209.61 12.64 209.61 12.53C209.61 12.24 209.55 12.18 209.40 12.18L208.75 12.18C208.66 12.18 208.63 12.14 208.60 11.31C208.52 8.99 207.14 8.34 206.23 8.05C206.09 8.01 206.12 8.01 206.23 7.95C206.82 7.69 208.14 6.94 208.14 5.63C208.14 3.63 206.44 3.21 205.04 3.21C204.72 3.21 203.43 3.29 203.01 3.29C202.59 3.29 201.61 3.26 201.39 3.26C201.21 3.26 201.11 3.28 201.11 3.51ZM203.53 7.80L203.53 4.40C203.53 4.05 203.56 3.68 203.60 3.68C203.81 3.65 204.09 3.65 204.32 3.65C205.62 3.65 206.86 4.47 206.86 5.82C206.86 6.99 206.32 7.57 205.66 7.88C205.62 7.90 205.58 7.90 205.51 7.90C205.03 7.88 204.32 7.88 203.71 7.87C203.55 7.87 203.53 7.85 203.53 7.80ZM217.08 12.39C217.08 12.63 217.10 12.68 217.29 12.68C217.48 12.68 217.85 12.64 218.47 12.64C219.10 12.64 219.66 12.68 219.98 12.68C220.15 12.68 220.15 12.61 220.15 12.40C220.15 12.24 220.15 12.18 219.98 12.18L218.78 12.18C218.74 12.18 218.72 11.54 218.72 10.79C218.72 9.46 218.74 7.48 218.74 5.99C218.74 5.25 218.74 4.84 218.75 4.28C218.75 4.02 218.82 4.14 218.95 4.28L225.83 12.66C225.92 12.75 226.00 12.89 226.11 12.89C226.23 12.89 226.30 12.77 226.30 12.54C226.30 12.39 226.46 6.65 226.48 4.48C226.48 4.06 226.51 3.70 226.53 3.70L227.16 3.70C227.39 3.70 227.44 3.68 227.44 3.49C227.44 3.25 227.44 3.19 227.25 3.19C227.05 3.19 226.62 3.23 226.06 3.23C225.44 3.23 224.64 3.19 224.55 3.19C224.38 3.19 224.38 3.26 224.38 3.47C224.38 3.64 224.38 3.70 224.55 3.70L225.85 3.70C225.86 3.70 225.86 4.33 225.86 4.44C225.86 5.85 225.89 8.33 225.89 9.70L225.89 10.29C225.89 10.57 225.88 10.65 225.65 10.37L219.97 3.39C219.86 3.25 219.83 3.19 219.66 3.19C219.58 3.19 219.20 3.23 218.89 3.23C218.60 3.23 217.52 3.19 217.32 3.19C217.15 3.19 217.13 3.26 217.13 3.47C217.13 3.64 217.15 3.70 217.32 3.70L218.23 3.70C218.23 4.17 218.19 8.53 218.12 10.79C218.09 11.69 218.11 12.18 217.99 12.18L217.35 12.18C217.13 12.18 217.08 12.19 217.08 12.39ZM245.01 5.01C245.01 5.17 245.20 5.17 245.32 5.17C245.48 5.17 245.52 5.15 245.53 4.97L245.64 3.89C245.66 3.81 246.20 3.75 246.96 3.75L248.95 3.75C249.00 3.75 249.03 4.35 249.03 4.97C249.03 6.43 248.98 12.18 248.85 12.18L247.98 12.18C247.76 12.18 247.72 12.19 247.72 12.39C247.72 12.63 247.73 12.68 247.93 12.68C248.25 12.68 249.23 12.64 249.65 12.64C250.07 12.64 251.01 12.68 251.33 12.68C251.50 12.68 251.52 12.61 251.52 12.40C251.52 12.24 251.50 12.18 251.33 12.18L250.33 12.18C250.31 12.18 250.31 11.76 250.31 11.31C250.31 9.56 250.39 5.96 250.39 5.92C250.40 5.18 250.40 3.75 250.50 3.75L252.11 3.75C252.83 3.75 253.65 3.78 253.65 3.85C253.65 3.99 253.61 4.90 253.61 4.97C253.61 5.12 253.68 5.17 253.86 5.17C254.06 5.17 254.13 5.17 254.13 5.03C254.13 3.93 254.18 3.40 254.18 3.14C254.18 2.94 254.10 2.94 253.90 2.94C253.75 2.94 253.69 2.98 253.68 3.16C253.68 3.23 253.04 3.28 252.20 3.28L247.20 3.28C246.54 3.28 245.73 3.28 245.73 3.21L245.73 3.07C245.73 2.94 245.60 2.94 245.50 2.94C245.28 2.94 245.25 3.00 245.24 3.19C245.18 3.89 245.01 4.97 245.01 5.01ZM261.45 8.15C261.45 11.17 263.79 12.80 266.04 12.80C268.83 12.80 270.80 10.89 270.80 8.06C270.80 5.33 269.05 3.11 266.25 3.11C263.65 3.11 261.45 5.10 261.45 8.15ZM262.85 7.77C262.85 5.64 264.14 3.58 266.11 3.58C268.35 3.58 269.43 5.81 269.43 7.94C269.43 10.08 268.32 12.32 266.06 12.32C264.07 12.32 262.85 10.28 262.85 7.77ZM278.98 7.91C278.98 11.40 281.34 12.89 283.93 12.89C285.82 12.89 287.83 11.89 287.83 11.58C287.83 11.12 287.84 10.68 287.84 10.33C287.84 9.81 287.85 9.56 287.98 9.56L288.41 9.56C288.55 9.56 288.57 9.39 288.57 9.30C288.57 9.18 288.55 9.06 288.41 9.06C288.19 9.06 287.83 9.10 287.15 9.10C286.71 9.10 285.96 9.07 285.28 9.06C285.14 9.06 285.14 9.24 285.14 9.35C285.14 9.45 285.17 9.56 285.29 9.56L286.51 9.56C286.55 9.56 286.61 9.87 286.61 10.33C286.61 10.82 286.59 11.41 286.57 11.65C286.55 11.76 285.91 12.39 284.33 12.39C282.09 12.39 280.49 10.29 280.49 7.94C280.49 5.42 282.04 3.54 284.05 3.54C285.94 3.54 287.11 4.87 287.11 5.03C287.11 5.15 287.06 6.12 287.06 6.17C287.06 6.31 287.10 6.36 287.36 6.36C287.56 6.36 287.63 6.33 287.63 6.15C287.63 5.43 287.67 3.75 287.67 3.56C287.67 3.36 287.57 3.33 287.36 3.33C287.14 3.33 287.11 3.39 287.11 3.56L287.11 3.91C287.11 3.99 287.07 4.02 286.94 3.92C286.66 3.72 285.67 3.08 284.10 3.08C281.26 3.08 278.98 4.79 278.98 7.91ZM296.60 12.39C296.60 12.63 296.63 12.68 296.83 12.68C297.15 12.68 298.12 12.64 298.54 12.64C298.96 12.64 303.46 12.68 303.79 12.68C303.91 12.68 304.07 12.66 304.07 12.49C304.07 12.07 304.11 11.23 304.11 10.53C304.11 10.39 303.95 10.39 303.83 10.39C303.72 10.39 303.59 10.39 303.59 10.51C303.58 11.06 303.58 11.41 303.55 11.76C303.52 12.01 303.52 12.04 303.42 12.04C303.27 12.04 300.64 12.08 299.14 12.08C299.07 12.08 299.03 10.11 298.98 8.26C298.98 8.06 299.03 8.09 299.17 8.09L301.45 8.09C302.15 8.09 302.18 8.20 302.18 8.30L302.18 9.00C302.18 9.14 302.36 9.14 302.47 9.14C302.57 9.14 302.69 9.13 302.69 9.02C302.69 8.83 302.67 8.33 302.67 7.83C302.67 7.32 302.69 6.83 302.69 6.71C302.69 6.59 302.55 6.58 302.46 6.58C302.34 6.58 302.18 6.59 302.18 6.72L302.18 7.45C302.18 7.62 301.73 7.63 301.45 7.63L299.11 7.63C299.00 7.63 298.98 7.63 298.98 7.45C298.97 6.75 298.96 6.06 298.96 5.46C298.96 5.12 298.96 3.71 299.04 3.71C300.27 3.71 302.78 3.75 302.78 3.81C302.78 3.99 302.74 4.83 302.74 4.89C302.74 5.04 302.81 5.10 302.99 5.10C303.18 5.10 303.25 5.08 303.25 4.94C303.25 3.85 303.31 3.36 303.31 3.09C303.31 2.91 303.23 2.90 303.03 2.90C302.83 2.90 302.83 2.95 302.81 3.11C302.79 3.25 302.86 3.25 301.95 3.25C301.34 3.25 299.19 3.29 298.42 3.29C297.93 3.29 297.00 3.25 296.90 3.25C296.77 3.25 296.72 3.30 296.72 3.49C296.72 3.72 296.79 3.74 296.95 3.74L297.61 3.74C297.67 3.74 297.74 4.79 297.74 5.71C297.74 5.80 297.79 8.27 297.79 9.83L297.79 11.17C297.79 11.84 297.77 12.18 297.74 12.18L296.88 12.18C296.66 12.18 296.60 12.21 296.60 12.39ZM311.81 5.01C311.81 5.17 311.99 5.17 312.12 5.17C312.27 5.17 312.31 5.15 312.33 4.97L312.44 3.89C312.45 3.81 313.00 3.75 313.75 3.75L315.74 3.75C315.80 3.75 315.83 4.35 315.83 4.97C315.83 6.43 315.77 12.18 315.64 12.18L314.78 12.18C314.55 12.18 314.51 12.19 314.51 12.39C314.51 12.63 314.52 12.68 314.72 12.68C315.04 12.68 316.02 12.64 316.44 12.64C316.86 12.64 317.80 12.68 318.12 12.68C318.29 12.68 318.32 12.61 318.32 12.40C318.32 12.24 318.29 12.18 318.12 12.18L317.13 12.18C317.10 12.18 317.10 11.76 317.10 11.31C317.10 9.56 317.18 5.96 317.18 5.92C317.20 5.18 317.20 3.75 317.30 3.75L318.91 3.75C319.62 3.75 320.45 3.78 320.45 3.85C320.45 3.99 320.40 4.90 320.40 4.97C320.40 5.12 320.47 5.17 320.66 5.17C320.85 5.17 320.92 5.17 320.92 5.03C320.92 3.93 320.98 3.40 320.98 3.14C320.98 2.94 320.89 2.94 320.70 2.94C320.54 2.94 320.49 2.98 320.47 3.16C320.47 3.23 319.83 3.28 318.99 3.28L313.99 3.28C313.33 3.28 312.52 3.28 312.52 3.21L312.52 3.07C312.52 2.94 312.40 2.94 312.30 2.94C312.07 2.94 312.05 3.00 312.03 3.19C311.98 3.89 311.81 4.97 311.81 5.01ZM328.73 12.39C328.73 12.63 328.73 12.68 328.93 12.68C329.25 12.68 330.19 12.64 330.61 12.64C331.03 12.64 331.86 12.68 332.18 12.68C332.35 12.68 332.35 12.61 332.35 12.40C332.35 12.24 332.35 12.18 332.18 12.18L331.25 12.18C331.17 12.18 331.13 9.93 331.13 8.20C331.13 8.01 331.13 8.01 331.25 8.01L336.49 8.01C336.56 8.01 336.57 8.01 336.57 8.18L336.57 9.91C336.57 11.05 336.56 12.18 336.50 12.18L335.73 12.18C335.51 12.18 335.47 12.19 335.47 12.39C335.47 12.63 335.48 12.68 335.68 12.68C336.00 12.68 336.84 12.64 337.26 12.64C337.68 12.64 338.27 12.68 338.59 12.68C338.76 12.68 338.77 12.61 338.77 12.40C338.77 12.24 338.76 12.18 338.59 12.18L337.85 12.18C337.81 12.18 337.79 9.27 337.79 7.04C337.79 5.40 337.79 3.70 337.83 3.70L338.45 3.70C338.67 3.70 338.72 3.68 338.72 3.49C338.72 3.25 338.70 3.19 338.51 3.19C338.37 3.19 337.74 3.23 337.15 3.23C336.48 3.23 335.87 3.19 335.65 3.19C335.45 3.19 335.43 3.22 335.43 3.44C335.43 3.67 335.50 3.70 335.66 3.70L336.46 3.70C336.52 3.70 336.57 4.79 336.57 5.71L336.57 7.42C336.57 7.59 336.57 7.59 336.41 7.59L331.30 7.59C331.13 7.59 331.13 7.59 331.13 7.38C331.13 6.96 331.11 6.23 331.11 5.53C331.11 4.66 331.13 3.70 331.18 3.70L331.95 3.70C332.18 3.70 332.22 3.68 332.22 3.49C332.22 3.25 332.21 3.19 332.01 3.19C331.69 3.19 331.10 3.23 330.50 3.23C329.91 3.23 329.42 3.19 329.20 3.19C329.01 3.19 328.92 3.21 328.92 3.44C328.92 3.68 329.03 3.70 329.20 3.70L329.81 3.70C329.87 3.70 329.88 5.59 329.88 7.18L329.88 8.61C329.88 10.08 329.87 12.18 329.80 12.18L328.99 12.18C328.76 12.18 328.73 12.19 328.73 12.39ZM346.81 12.39C346.81 12.63 346.84 12.68 347.03 12.68C347.35 12.68 348.32 12.64 348.74 12.64C349.16 12.64 353.67 12.68 353.99 12.68C354.12 12.68 354.27 12.66 354.27 12.49C354.27 12.07 354.31 11.23 354.31 10.53C354.31 10.39 354.16 10.39 354.03 10.39C353.92 10.39 353.79 10.39 353.79 10.51C353.78 11.06 353.78 11.41 353.75 11.76C353.72 12.01 353.72 12.04 353.63 12.04C353.47 12.04 350.84 12.08 349.34 12.08C349.27 12.08 349.23 10.11 349.19 8.26C349.19 8.06 349.23 8.09 349.37 8.09L351.65 8.09C352.35 8.09 352.38 8.20 352.38 8.30L352.38 9.00C352.38 9.14 352.56 9.14 352.67 9.14C352.77 9.14 352.90 9.13 352.90 9.02C352.90 8.83 352.87 8.33 352.87 7.83C352.87 7.32 352.90 6.83 352.90 6.71C352.90 6.59 352.76 6.58 352.66 6.58C352.55 6.58 352.38 6.59 352.38 6.72L352.38 7.45C352.38 7.62 351.93 7.63 351.65 7.63L349.31 7.63C349.20 7.63 349.19 7.63 349.19 7.45C349.17 6.75 349.16 6.06 349.16 5.46C349.16 5.12 349.16 3.71 349.24 3.71C350.48 3.71 352.98 3.75 352.98 3.81C352.98 3.99 352.94 4.83 352.94 4.89C352.94 5.04 353.01 5.10 353.19 5.10C353.39 5.10 353.46 5.08 353.46 4.94C353.46 3.85 353.51 3.36 353.51 3.09C353.51 2.91 353.43 2.90 353.23 2.90C353.04 2.90 353.04 2.95 353.01 3.11C353.00 3.25 353.07 3.25 352.16 3.25C351.54 3.25 349.40 3.29 348.63 3.29C348.14 3.29 347.20 3.25 347.10 3.25C346.98 3.25 346.92 3.30 346.92 3.49C346.92 3.72 346.99 3.74 347.16 3.74L347.82 3.74C347.87 3.74 347.94 4.79 347.94 5.71C347.94 5.80 348.00 8.27 348.00 9.83L348.00 11.17C348.00 11.84 347.97 12.18 347.94 12.18L347.09 12.18C346.86 12.18 346.81 12.21 346.81 12.39ZM362.28 3.51C362.28 3.72 362.35 3.79 362.54 3.79L363.36 3.77C363.45 3.77 363.50 6.61 363.50 8.55L363.50 10.42C363.50 11.30 363.48 12.18 363.44 12.18L362.84 12.18C362.61 12.18 362.54 12.19 362.54 12.39C362.54 12.63 362.59 12.68 362.78 12.68C362.91 12.68 363.73 12.64 364.15 12.64C364.57 12.64 365.34 12.68 365.67 12.68C365.83 12.68 365.86 12.61 365.86 12.40C365.86 12.24 365.83 12.18 365.67 12.18L364.85 12.18C364.78 12.18 364.70 9.18 364.70 8.37C364.70 8.30 364.70 8.26 364.81 8.26C365.20 8.26 365.81 8.27 366.10 8.27C368.34 8.32 368.48 10.00 368.48 11.68L368.48 12.49C368.48 12.61 368.54 12.64 368.63 12.64C368.63 12.64 370.08 12.68 370.55 12.68C370.72 12.68 370.78 12.64 370.78 12.53C370.78 12.24 370.72 12.18 370.57 12.18L369.92 12.18C369.82 12.18 369.80 12.14 369.77 11.31C369.68 8.99 368.31 8.34 367.40 8.05C367.26 8.01 367.29 8.01 367.40 7.95C367.99 7.69 369.31 6.94 369.31 5.63C369.31 3.63 367.61 3.21 366.21 3.21C365.89 3.21 364.60 3.29 364.18 3.29C363.76 3.29 362.78 3.26 362.56 3.26C362.38 3.26 362.28 3.28 362.28 3.51ZM364.70 7.80L364.70 4.40C364.70 4.05 364.73 3.68 364.77 3.68C364.98 3.65 365.26 3.65 365.48 3.65C366.79 3.65 368.03 4.47 368.03 5.82C368.03 6.99 367.49 7.57 366.83 7.88C366.79 7.90 366.74 7.90 366.67 7.90C366.20 7.88 365.48 7.88 364.88 7.87C364.71 7.87 364.70 7.85 364.70 7.80ZM378.53 12.07C378.53 12.31 378.98 12.75 379.40 12.75C379.58 12.75 380.03 12.35 380.03 11.90C380.03 11.51 379.46 11.20 379.19 11.20C378.92 11.20 378.53 11.76 378.53 12.07Z"></path></g></svg>