<svg data-v-fde0c5aa="" xmlns="http://www.w3.org/2000/svg" viewBox="0 0 300 300" class="iconAboveSlogan"><!----><defs data-v-fde0c5aa=""><!----></defs><rect data-v-fde0c5aa="" fill="#FBF3EF" x="0" y="0" width="300px" height="300px" class="logo-background-square"></rect><defs data-v-fde0c5aa=""><!----></defs><g data-v-fde0c5aa="" id="a9be562b-834f-465f-8b23-50786d35b566" fill="#2F190E" transform="matrix(5.927322787359079,0,0,5.927322787359079,52.34735746688474,157.4941404050251)"><path d="M8.39 1.20L8.39 1.20Q8.48 1.05 8.88 0.86L8.88 0.86L8.88 0.86Q9.28 0.67 9.56 0.67L9.56 0.67L9.56 0.67Q9.93 0.67 9.87 1.02L9.87 1.02L9.87 1.02Q9.72 1.93 9.48 2.97L9.48 2.97L9.48 2.97Q9.25 4.02 9.20 4.30L9.20 4.30L9.20 4.30Q8.72 6.48 8.53 7.59L8.53 7.59L8.43 8.13L8.43 8.13Q8.27 8.95 8.18 9.60L8.18 9.60L8.18 9.60Q8.09 10.26 8.09 10.89L8.09 10.89L8.09 10.89Q8.09 12.39 8.72 13.17L8.72 13.17L8.72 13.17Q8.81 13.29 8.81 13.40L8.81 13.40L8.81 13.40Q8.81 13.66 8.45 13.88L8.45 13.88L8.45 13.88Q8.09 14.10 7.74 14.10L7.74 14.10L7.74 14.10Q7.45 14.10 7.34 13.94L7.34 13.94L7.34 13.94Q6.59 13.02 6.59 11.33L6.59 11.33L6.59 11.33Q6.59 10.65 6.67 10.02L6.67 10.02L6.67 10.02Q6.75 9.39 6.92 8.41L6.92 8.41L6.92 8.41Q7.14 6.99 7.66 4.75L7.66 4.75L7.66 4.75Q7.63 4.77 7.63 4.79L7.63 4.79L7.63 4.79Q7.55 4.93 7.27 5.49L7.27 5.49L7.27 5.49Q6.85 6.34 6.48 6.83L6.48 6.83L6.48 6.83Q6.12 7.32 5.56 7.50L5.56 7.50L5.56 7.50Q5.29 7.59 5.05 7.59L5.05 7.59L5.05 7.59Q4.58 7.59 4.35 7.22L4.35 7.22L4.35 7.22Q4.13 6.85 4.09 6.22L4.09 6.22L4.05 5.54L4.05 5.54Q3.92 5.94 3.78 6.45L3.78 6.45L3.51 7.36L3.51 7.36Q3.02 9.06 2.65 10.17L2.65 10.17L2.65 10.17Q2.28 11.28 1.79 12.35L1.79 12.35L1.79 12.35Q1.71 12.54 1.35 12.70L1.35 12.70L1.35 12.70Q0.99 12.85 0.67 12.85L0.67 12.85L0.67 12.85Q0.49 12.85 0.38 12.79L0.38 12.79L0.38 12.79Q0.27 12.73 0.27 12.60L0.27 12.60L0.27 12.60Q0.27 12.53 0.31 12.45L0.31 12.45L0.31 12.45Q0.81 11.33 1.19 10.17L1.19 10.17L1.19 10.17Q1.57 9.02 2.11 7.13L2.11 7.13L2.37 6.26L2.37 6.26Q2.93 4.35 3.23 3.40L3.23 3.40L3.32 3.11L3.32 3.11Q3.46 2.65 3.58 2.35L3.58 2.35L3.58 2.35Q3.71 2.06 3.91 1.82L3.91 1.82L3.91 1.82Q4.02 1.68 4.32 1.54L4.32 1.54L4.32 1.54Q4.62 1.40 4.89 1.40L4.89 1.40L4.89 1.40Q5.29 1.40 5.31 1.76L5.31 1.76L5.31 1.76Q5.33 2.39 5.45 3.65L5.45 3.65L5.50 4.31L5.50 4.31Q5.52 4.44 5.52 4.82L5.52 4.82L5.52 4.82Q5.52 5.54 5.56 5.89L5.56 5.89L5.92 5.26L5.92 5.26Q6.09 4.96 6.64 4.02L6.64 4.02L6.64 4.02Q7.36 2.80 8.39 1.20L8.39 1.20ZM13.64 5.07L13.64 5.07Q12.92 5.61 12.47 6.83L12.47 6.83L12.47 6.83Q13.85 6.31 14.95 5.96L14.95 5.96L14.95 5.96Q14.49 5.32 14.01 5.10L14.01 5.10L14.01 5.10Q13.92 5.05 13.82 5.04L13.82 5.04L13.82 5.04Q13.73 5.03 13.72 5.03L13.72 5.03L13.72 5.03Q13.73 5.04 13.70 5.05L13.70 5.05L13.70 5.05Q13.66 5.07 13.64 5.07L13.64 5.07ZM13.69 4.07L13.69 4.07Q13.92 4.02 14.17 4.02L14.17 4.02L14.17 4.02Q15.51 4.02 16.60 5.82L16.60 5.82L16.60 5.82Q16.65 5.88 16.65 5.96L16.65 5.96L16.65 5.96Q16.65 6.12 16.45 6.29L16.45 6.29L16.45 6.29Q16.30 6.45 16.06 6.55L16.06 6.55L16.06 6.55Q14.66 7.17 12.17 8.02L12.17 8.02L12.17 8.02Q12.03 8.74 12.03 9.49L12.03 9.49L12.03 9.49Q12.03 9.84 12.04 10.00L12.04 10.00L12.04 10.00Q12.07 10.63 12.29 11.09L12.29 11.09L12.29 11.09Q12.36 11.24 12.50 11.38L12.50 11.38L12.50 11.38Q12.63 11.52 12.70 11.56L12.70 11.56L12.70 11.56Q12.74 11.59 12.84 11.59L12.84 11.59L12.84 11.59Q12.94 11.59 13.07 11.54L13.07 11.54L13.07 11.54Q13.20 11.48 13.37 11.38L13.37 11.38L13.37 11.38Q13.78 11.14 14.13 10.84L14.13 10.84L14.13 10.84Q14.48 10.53 14.97 10.04L14.97 10.04L14.97 10.04Q15.16 9.84 15.62 9.84L15.62 9.84L15.62 9.84Q15.88 9.84 16.05 9.92L16.05 9.92L16.05 9.92Q16.23 10.00 16.23 10.14L16.23 10.14L16.23 10.14Q16.23 10.26 16.09 10.42L16.09 10.42L16.09 10.42Q15.22 11.35 14.31 12.01L14.31 12.01L14.31 12.01Q13.40 12.67 12.49 12.67L12.49 12.67L12.49 12.67Q12.05 12.67 11.68 12.49L11.68 12.49L11.68 12.49Q11.05 12.19 10.77 11.55L10.77 11.55L10.77 11.55Q10.49 10.91 10.49 10.04L10.49 10.04L10.49 10.04Q10.49 9.39 10.65 8.53L10.65 8.53L10.54 8.55L10.43 8.60L10.43 8.60Q10.22 8.67 10.09 8.67L10.09 8.67L10.09 8.67Q9.90 8.67 9.79 8.57L9.79 8.57L9.79 8.57Q9.67 8.47 9.67 8.32L9.67 8.32L9.67 8.32Q9.67 8.13 9.82 7.96L9.82 7.96L9.82 7.96Q9.97 7.78 10.26 7.67L10.26 7.67L10.95 7.41L10.95 7.41Q11.07 7.01 11.33 6.38L11.33 6.38L11.33 6.38Q11.72 5.52 12.31 4.89L12.31 4.89L12.31 4.89Q12.89 4.26 13.69 4.07L13.69 4.07ZM25.20 3.99L25.20 3.99Q25.13 5.46 25.13 6.62L25.13 6.62L25.13 6.62Q25.13 9.51 25.52 11.76L25.52 11.76L25.52 11.76Q25.58 12.08 25.27 12.31L25.27 12.31L25.27 12.31Q24.96 12.54 24.60 12.54L24.60 12.54L24.60 12.54Q24.39 12.54 24.25 12.45L24.25 12.45L24.25 12.45Q24.11 12.35 24.08 12.15L24.08 12.15L24.08 12.15Q23.72 9.44 23.66 7.08L23.66 7.08L23.66 7.08Q22.99 8.68 22.05 11.56L22.05 11.56L22.05 11.56Q22.04 11.62 21.97 11.72L21.97 11.72L21.97 11.72Q21.84 11.89 21.59 11.98L21.59 11.98L21.59 11.98Q21.34 12.08 21.08 12.08L21.08 12.08L21.08 12.08Q20.89 12.08 20.78 12.03L20.78 12.03L20.78 12.03Q20.59 11.93 20.59 11.76L20.59 11.76L20.59 11.76Q20.59 11.72 20.62 11.61L20.62 11.61L20.62 11.61Q20.64 11.45 20.64 11.16L20.64 11.16L20.64 11.16Q20.64 10.67 20.55 9.74L20.55 9.74L20.50 8.99L20.50 8.99Q20.44 7.62 20.40 6.93L20.40 6.93L20.40 6.93Q19.73 8.16 19.33 8.75L19.33 8.75L19.33 8.75Q19.00 10.53 18.21 12.19L18.21 12.19L18.21 12.19Q18.12 12.39 17.79 12.53L17.79 12.53L17.79 12.53Q17.47 12.67 17.16 12.67L17.16 12.67L17.16 12.67Q16.97 12.67 16.85 12.60L16.85 12.60L16.85 12.60Q16.73 12.53 16.73 12.40L16.73 12.40L16.73 12.40Q16.73 12.32 16.77 12.22L16.77 12.22L16.77 12.22Q17.42 10.82 17.75 9.35L17.75 9.35L17.75 9.35Q17.70 9.30 17.70 9.20L17.70 9.20L17.70 9.20Q17.70 9.06 17.81 8.90L17.81 8.90L17.86 8.81L17.86 8.81Q18.09 7.69 18.09 6.43L18.09 6.43L18.09 6.43Q18.09 5.89 18.05 5.38L18.05 5.38L18.05 5.38Q18.03 5.14 18.37 4.94L18.37 4.94L18.37 4.94Q18.70 4.75 19.05 4.75L19.05 4.75L19.05 4.75Q19.25 4.75 19.38 4.83L19.38 4.83L19.38 4.83Q19.50 4.91 19.52 5.07L19.52 5.07L19.52 5.07Q19.54 5.32 19.57 5.88L19.57 5.88L19.57 5.88Q19.89 5.29 20.26 4.77L20.26 4.77L20.26 4.77Q20.29 4.54 20.59 4.36L20.59 4.36L20.59 4.36Q20.90 4.19 21.24 4.19L21.24 4.19L21.24 4.19Q21.45 4.19 21.59 4.28L21.59 4.28L21.59 4.28Q21.74 4.37 21.76 4.56L21.76 4.56L21.76 4.56Q21.90 6.37 21.95 7.78L21.95 7.78L21.95 7.78Q22.89 5.49 23.81 3.99L23.81 3.99L23.81 3.99Q23.91 3.84 24.19 3.71L24.19 3.71L24.19 3.71Q24.47 3.58 24.74 3.58L24.74 3.58L24.74 3.58Q24.95 3.58 25.08 3.68L25.08 3.68L25.08 3.68Q25.21 3.78 25.20 3.99L25.20 3.99ZM31.23 7.71L31.23 7.71Q31.23 6.23 29.50 5.38L29.50 5.38L29.50 5.38Q29.06 5.74 28.63 6.34L28.63 6.34L28.63 6.34Q28.10 7.11 27.75 8.06L27.75 8.06L27.75 8.06Q27.61 8.44 27.48 9.09L27.48 9.09L27.48 9.09Q27.36 9.74 27.36 10.30L27.36 10.30L27.36 10.30Q27.36 10.88 27.52 11.22L27.52 11.22L27.52 11.22Q27.68 11.56 28.04 11.56L28.04 11.56L28.04 11.56Q28.34 11.56 28.73 11.33L28.73 11.33L28.73 11.33Q29.81 10.70 30.52 9.76L30.52 9.76L30.52 9.76Q31.23 8.82 31.23 7.71L31.23 7.71ZM31.63 5.18L31.63 5.18Q32.13 5.66 32.40 6.26L32.40 6.26L32.40 6.26Q32.68 6.86 32.68 7.53L32.68 7.53L32.68 7.53Q32.68 8.50 32.12 9.49L32.12 9.49L32.12 9.49Q31.74 10.16 31.01 10.91L31.01 10.91L31.01 10.91Q30.28 11.65 29.39 12.16L29.39 12.16L29.39 12.16Q28.50 12.67 27.69 12.67L27.69 12.67L27.69 12.67Q27.19 12.67 26.74 12.45L26.74 12.45L26.74 12.45Q25.79 11.93 25.79 10.58L25.79 10.58L25.79 10.58Q25.79 9.62 26.22 8.46L26.22 8.46L26.22 8.46Q26.66 7.31 27.15 6.51L27.15 6.51L27.15 6.51Q28.34 4.62 29.65 4.13L29.65 4.13L29.65 4.13Q30.02 3.99 30.44 3.99L30.44 3.99L30.44 3.99Q30.93 3.99 31.26 4.23L31.26 4.23L31.26 4.23Q31.60 4.48 31.65 5.00L31.65 5.00L31.65 5.05L31.65 5.05Q31.65 5.10 31.63 5.18L31.63 5.18Z"></path></g><defs data-v-fde0c5aa=""><linearGradient data-v-fde0c5aa="" gradientTransform="rotate(25)" id="6bdadf0b-cb71-47fc-ab07-37f2dbb38c0a" x1="0%" y1="0%" x2="100%" y2="0%"><stop data-v-fde0c5aa="" offset="0%" stop-color="#A92580" stop-opacity="1"></stop><stop data-v-fde0c5aa="" offset="100%" stop-color="#F7BC00" stop-opacity="1"></stop></linearGradient></defs><g data-v-fde0c5aa="" id="197a4842-e73d-4ae2-bfec-dbf7d30f8a3d" stroke="none" fill="url(#6bdadf0b-cb71-47fc-ab07-37f2dbb38c0a)" transform="matrix(1.2376248710241127,0,0,1.2376248710241127,393.7975867329644,-435.99053294973646)"><path d="M-153.5 385.6c-1.2-.6-2.6-1-3.9-1-3.1 0-6 1.7-7.4 4.5l-13.4 25.3c-6.1-6.6-11.9-15.1-15.8-25.6l-51 21.7s7.2 27.5 42.5 57.7l51-34s-6-2.6-13.8-8.3l15.4-29c2.1-4 .5-9.1-3.6-11.3zm-82.9 32.4c-.2 0-.4-.1-.5-.3-.1-.3 0-.6.3-.7l37.7-17.8c.3-.1.6 0 .7.3s0 .6-.3.7l-37.7 17.8h-.2zm3.2 6.4c-.2 0-.4-.1-.5-.3-.1-.3 0-.6.2-.7l36.9-18.9c.3-.1.6 0 .7.2.1.3 0 .6-.2.7l-36.9 18.9c-.1.1-.2.1-.2.1zm3.4 5.8c-.2 0-.4-.1-.5-.3-.1-.3 0-.6.2-.7l28.6-15.2c.3-.1.6 0 .7.2.1.3 0 .6-.2.7l-28.6 15.2c-.1.1-.1.1-.2.1zm6.7 9.7c-.2 0-.4-.1-.5-.3-.1-.3-.1-.6.2-.7l38.7-22.1c.3-.2.6-.1.7.2.1.3.1.6-.2.7l-38.7 22.1c0 .1-.1.1-.2.1zm6.8 7c-.1.1-.2.1-.3.1-.2 0-.4-.1-.5-.3-.2-.3-.1-.6.2-.8l33.3-21.4c-.3.5-.5 1.1-.6 1.7l-32.1 20.7zm4.8 5.7c-.2 0-.3-.1-.4-.2-.2-.2-.1-.6.1-.8l28-20.3c.1.3.3.7.5 1l-27.9 20.1c-.1.2-.2.2-.3.2zm30.2-9.9c0 .2 0 .4-.2.5l-.1.1-.1.3h-.3l-23.3 16c-.1.1-.2.1-.3.1-.2 0-.3-.1-.5-.2-.2-.2-.1-.6.1-.8l21.8-15-2.4.1 2.5-4.7 3.6 1.9-.8 1.7zm1.5-2.7l-3.7-2 1.9-3.6c.5.5 1.1.9 1.7 1.2.6.3 1.3.6 2 .7l-1.9 3.7zm3.8-4.6c-1.2 0-2.3-.3-3.3-.8-1.3-.7-2.3-1.7-3-3-.2-.3-.3-.7-.4-1-.5-1.5-.5-3.1 0-4.7l3.7 2 1.1.6 7.7 4.1c-1.4 1.8-3.5 2.8-5.8 2.8zm25-39l-.3.6-12.7-6.7.3-.6c1.2-2.4 3.7-3.8 6.3-3.8 1.2 0 2.3.3 3.3.8 3.6 1.9 4.9 6.2 3.1 9.7z"></path></g><defs data-v-fde0c5aa=""><!----></defs><g data-v-fde0c5aa="" id="72f79bbd-da48-4afb-a697-96f3f04c5454" fill="#2F190E" transform="matrix(0.7718761124435218,0,0,0.7718761124435218,76.95736210292807,247.34895062010725)"><path d="M2.66 16.24L2.66 16.24L2.66 16.24Q1.86 16.00 1.58 15.79L1.58 15.79L1.58 15.79Q1.30 15.57 1.30 15.19L1.30 15.19L1.30 15.19Q1.30 14.77 1.50 14.01L1.50 14.01L1.50 14.01Q1.69 13.24 2.01 12.31L2.01 12.31L2.01 12.31Q2.32 11.37 2.73 10.35L2.73 10.35L2.73 10.35Q3.14 9.32 3.56 8.39L3.56 8.39L3.56 8.39Q3.98 7.45 4.38 6.67L4.38 6.67L4.38 6.67Q4.77 5.89 5.08 5.46L5.08 5.46L4.98 4.87L4.98 4.87Q5.18 4.87 5.53 4.97L5.53 4.97L5.53 4.97Q5.88 5.07 6.24 5.21L6.24 5.21L6.24 5.21Q6.59 5.35 6.87 5.49L6.87 5.49L6.87 5.49Q7.14 5.64 7.17 5.74L7.17 5.74L7.17 5.74Q7.10 6.08 7.06 6.76L7.06 6.76L7.06 6.76Q7.01 7.43 7.01 8.20L7.01 8.20L7.01 8.20Q7.01 9.73 7.13 11.19L7.13 11.19L7.13 11.19Q7.25 12.66 7.69 14.17L7.69 14.17L7.69 14.17Q7.91 13.05 8.17 11.94L8.17 11.94L8.17 11.94Q8.43 10.82 8.71 9.81L8.71 9.81L8.71 9.81Q8.99 8.79 9.27 7.92L9.27 7.92L9.27 7.92Q9.55 7.06 9.81 6.40L9.81 6.40L9.81 6.40Q10.07 5.75 10.29 5.38L10.29 5.38L10.29 5.38Q10.51 5.01 10.70 4.98L10.70 4.98L10.70 4.98Q10.85 5.01 11.03 5.10L11.03 5.10L11.03 5.10Q11.21 5.19 11.38 5.32L11.38 5.32L11.38 5.32Q11.55 5.45 11.69 5.60L11.69 5.60L11.69 5.60Q11.83 5.75 11.91 5.91L11.91 5.91L11.91 5.91Q11.47 6.09 11.03 6.76L11.03 6.76L11.03 6.76Q10.58 7.43 10.19 8.39L10.19 8.39L10.19 8.39Q9.79 9.35 9.44 10.47L9.44 10.47L9.44 10.47Q9.10 11.59 8.84 12.68L8.84 12.68L8.84 12.68Q8.58 13.76 8.44 14.69L8.44 14.69L8.44 14.69Q8.29 15.61 8.27 16.17L8.27 16.17L8.27 16.17Q8.27 16.20 8.29 16.21L8.29 16.21L8.29 16.21Q8.25 16.23 8.20 16.23L8.20 16.23L8.20 16.23Q8.15 16.23 8.11 16.23L8.11 16.23L8.11 16.23Q7.46 16.23 6.96 16.07L6.96 16.07L6.96 16.07Q6.47 15.90 6.31 15.61L6.31 15.61L6.31 15.61Q6.02 14.43 5.82 13.34L5.82 13.34L5.82 13.34Q5.63 12.25 5.50 11.16L5.50 11.16L5.50 11.16Q5.36 10.07 5.29 8.95L5.29 8.95L5.29 8.95Q5.21 7.84 5.17 6.62L5.17 6.62L5.17 6.62Q4.90 7.04 4.61 7.72L4.61 7.72L4.61 7.72Q4.31 8.40 4.03 9.21L4.03 9.21L4.03 9.21Q3.75 10.02 3.49 10.92L3.49 10.92L3.49 10.92Q3.23 11.82 3.04 12.67L3.04 12.67L3.04 12.67Q2.84 13.52 2.73 14.29L2.73 14.29L2.73 14.29Q2.62 15.05 2.62 15.61L2.62 15.61L2.62 15.61Q2.62 15.90 2.63 16.03L2.63 16.03L2.63 16.03Q2.63 16.16 2.66 16.24ZM23.76 9.21L23.76 9.21L23.76 9.21Q24.22 9.21 24.48 9.46L24.48 9.46L24.48 9.46Q24.74 9.72 24.74 10.16L24.74 10.16L24.74 10.16Q24.74 10.28 24.72 10.39L24.72 10.39L24.72 10.39Q24.70 10.51 24.67 10.60L24.67 10.60L24.67 10.60Q24.49 10.57 24.26 10.55L24.26 10.55L24.26 10.55Q24.04 10.53 23.73 10.53L23.73 10.53L23.73 10.53Q23.13 10.53 22.51 10.63L22.51 10.63L22.51 10.63Q21.90 10.74 21.34 10.81L21.34 10.81L21.34 10.81Q21.01 11.55 20.75 12.24L20.75 12.24L20.75 12.24Q20.48 12.94 20.29 13.51L20.29 13.51L20.29 13.51Q20.10 14.08 20.00 14.50L20.00 14.50L20.00 14.50Q19.89 14.92 19.88 15.13L19.88 15.13L19.88 15.13Q21.01 14.90 22.17 14.73L22.17 14.73L22.17 14.73Q23.32 14.56 24.60 14.48L24.60 14.48L24.60 14.48Q24.75 14.71 24.86 14.99L24.86 14.99L24.86 14.99Q24.96 15.27 24.96 15.60L24.96 15.60L24.96 15.60Q24.96 15.68 24.96 15.78L24.96 15.78L24.96 15.78Q24.96 15.88 24.93 15.97L24.93 15.97L24.93 15.97Q24.54 15.96 24.11 15.95L24.11 15.95L24.11 15.95Q23.67 15.95 22.97 15.95L22.97 15.95L22.97 15.95Q22.51 15.95 22.10 15.97L22.10 15.97L22.10 15.97Q21.69 15.99 21.27 16.03L21.27 16.03L21.27 16.03Q20.85 16.07 20.38 16.14L20.38 16.14L20.38 16.14Q19.91 16.21 19.32 16.31L19.32 16.31L19.32 16.31Q18.68 16.06 18.07 15.08L18.07 15.08L18.07 15.08Q18.31 14.57 18.74 13.54L18.74 13.54L18.74 13.54Q19.17 12.52 19.82 10.79L19.82 10.79L19.82 10.79Q19.19 10.60 19.00 10.09L19.00 10.09L19.00 10.09Q19.07 10.02 19.40 9.92L19.40 9.92L19.40 9.92Q19.74 9.81 20.23 9.70L20.23 9.70L20.23 9.70Q20.44 9.16 20.59 8.75L20.59 8.75L20.59 8.75Q20.73 8.34 20.85 7.99L20.85 7.99L20.85 7.99Q20.96 7.63 21.05 7.29L21.05 7.29L21.05 7.29Q21.14 6.94 21.22 6.54L21.22 6.54L21.22 6.54Q20.73 6.51 20.45 6.27L20.45 6.27L20.45 6.27Q20.17 6.02 20.17 5.63L20.17 5.63L20.17 5.63Q20.17 5.52 20.21 5.36L20.21 5.36L20.21 5.36Q20.24 5.21 20.29 5.10L20.29 5.10L20.29 5.10Q20.57 5.14 20.82 5.15L20.82 5.15L20.82 5.15Q21.08 5.17 21.50 5.17L21.50 5.17L21.50 5.17Q22.39 5.17 23.16 5.12L23.16 5.12L23.16 5.12Q23.93 5.07 24.55 5.01L24.55 5.01L24.55 5.01Q25.17 4.96 25.62 4.91L25.62 4.91L25.62 4.91Q26.07 4.86 26.31 4.86L26.31 4.86L26.31 4.86Q26.63 4.86 26.88 5.19L26.88 5.19L26.88 5.19Q27.13 5.53 27.26 6.15L27.26 6.15L27.26 6.15Q26.82 6.10 26.55 6.09L26.55 6.09L26.55 6.09Q26.28 6.08 26.07 6.08L26.07 6.08L26.07 6.08Q25.30 6.08 24.66 6.15L24.66 6.15L24.66 6.15Q24.02 6.23 23.44 6.31L23.44 6.31L23.44 6.31Q23.35 6.44 23.25 6.64L23.25 6.64L23.25 6.64Q23.14 6.83 22.97 7.18L22.97 7.18L22.97 7.18Q22.81 7.53 22.56 8.06L22.56 8.06L22.56 8.06Q22.32 8.60 21.97 9.39L21.97 9.39L21.97 9.39Q22.50 9.31 22.97 9.26L22.97 9.26L22.97 9.26Q23.44 9.21 23.76 9.21ZM37.95 16.07L37.95 16.07L37.95 16.07Q37.63 16.24 37.27 16.24L37.27 16.24L37.27 16.24Q36.82 16.18 36.41 16.02L36.41 16.02L36.41 16.02Q35.99 15.85 35.80 15.61L35.80 15.61L35.80 15.61Q35.69 14.92 35.62 14.35L35.62 14.35L35.62 14.35Q35.55 13.78 35.50 13.27L35.50 13.27L35.50 13.27Q35.46 12.75 35.45 12.29L35.45 12.29L35.45 12.29Q35.43 11.82 35.43 11.34L35.43 11.34L35.43 11.34Q35.43 10.71 35.45 10.01L35.45 10.01L35.45 10.01Q35.46 9.31 35.48 8.52L35.48 8.52L35.48 8.52Q35.50 7.73 35.52 6.82L35.52 6.82L35.52 6.82Q35.53 5.92 35.53 4.86L35.53 4.86L35.53 4.86Q35.71 4.86 36.08 4.96L36.08 4.96L36.08 4.96Q36.44 5.07 36.80 5.21L36.80 5.21L36.80 5.21Q37.16 5.35 37.44 5.49L37.44 5.49L37.44 5.49Q37.72 5.64 37.74 5.74L37.74 5.74L37.74 5.74Q37.60 6.13 37.50 6.76L37.50 6.76L37.50 6.76Q37.39 7.39 37.33 8.16L37.33 8.16L37.33 8.16Q37.27 8.93 37.24 9.79L37.24 9.79L37.24 9.79Q37.21 10.64 37.21 11.48L37.21 11.48L37.21 11.48Q37.21 12.11 37.23 12.61L37.23 12.61L37.23 12.61Q37.24 13.10 37.26 13.50L37.26 13.50L37.26 13.50Q37.28 13.90 37.32 14.25L37.32 14.25L37.32 14.25Q37.37 14.59 37.42 14.92L37.42 14.92L37.42 14.92Q37.81 13.73 38.28 12.54L38.28 12.54L38.28 12.54Q38.75 11.35 39.25 10.25L39.25 10.25L39.25 10.25Q39.75 9.16 40.24 8.20L40.24 8.20L40.24 8.20Q40.73 7.25 41.17 6.54L41.17 6.54L41.17 6.54Q41.61 5.84 41.96 5.43L41.96 5.43L41.96 5.43Q42.31 5.01 42.53 4.98L42.53 4.98L42.53 4.98Q42.69 5.01 42.86 5.10L42.86 5.10L42.86 5.10Q43.04 5.19 43.19 5.32L43.19 5.32L43.19 5.32Q43.34 5.45 43.47 5.60L43.47 5.60L43.47 5.60Q43.60 5.75 43.67 5.91L43.67 5.91L43.67 5.91Q43.15 6.09 42.55 6.76L42.55 6.76L42.55 6.76Q41.96 7.43 41.36 8.38L41.36 8.38L41.36 8.38Q40.75 9.32 40.19 10.44L40.19 10.44L40.19 10.44Q39.62 11.55 39.16 12.61L39.16 12.61L39.16 12.61Q38.71 13.68 38.39 14.60L38.39 14.60L38.39 14.60Q38.07 15.53 37.95 16.07ZM54.92 9.21L54.92 9.21L54.92 9.21Q55.38 9.21 55.64 9.46L55.64 9.46L55.64 9.46Q55.90 9.72 55.90 10.16L55.90 10.16L55.90 10.16Q55.90 10.28 55.88 10.39L55.88 10.39L55.88 10.39Q55.86 10.51 55.83 10.60L55.83 10.60L55.83 10.60Q55.65 10.57 55.43 10.55L55.43 10.55L55.43 10.55Q55.20 10.53 54.89 10.53L54.89 10.53L54.89 10.53Q54.29 10.53 53.68 10.63L53.68 10.63L53.68 10.63Q53.06 10.74 52.50 10.81L52.50 10.81L52.50 10.81Q52.18 11.55 51.91 12.24L51.91 12.24L51.91 12.24Q51.65 12.94 51.46 13.51L51.46 13.51L51.46 13.51Q51.27 14.08 51.16 14.50L51.16 14.50L51.16 14.50Q51.06 14.92 51.04 15.13L51.04 15.13L51.04 15.13Q52.18 14.90 53.33 14.73L53.33 14.73L53.33 14.73Q54.49 14.56 55.76 14.48L55.76 14.48L55.76 14.48Q55.92 14.71 56.02 14.99L56.02 14.99L56.02 14.99Q56.13 15.27 56.13 15.60L56.13 15.60L56.13 15.60Q56.13 15.68 56.13 15.78L56.13 15.78L56.13 15.78Q56.13 15.88 56.10 15.97L56.10 15.97L56.10 15.97Q55.71 15.96 55.27 15.95L55.27 15.95L55.27 15.95Q54.84 15.95 54.14 15.95L54.14 15.95L54.14 15.95Q53.68 15.95 53.26 15.97L53.26 15.97L53.26 15.97Q52.85 15.99 52.43 16.03L52.43 16.03L52.43 16.03Q52.01 16.07 51.54 16.14L51.54 16.14L51.54 16.14Q51.07 16.21 50.48 16.31L50.48 16.31L50.48 16.31Q49.84 16.06 49.24 15.08L49.24 15.08L49.24 15.08Q49.48 14.57 49.90 13.54L49.90 13.54L49.90 13.54Q50.33 12.52 50.99 10.79L50.99 10.79L50.99 10.79Q50.36 10.60 50.16 10.09L50.16 10.09L50.16 10.09Q50.23 10.02 50.57 9.92L50.57 9.92L50.57 9.92Q50.90 9.81 51.39 9.70L51.39 9.70L51.39 9.70Q51.60 9.16 51.75 8.75L51.75 8.75L51.75 8.75Q51.90 8.34 52.01 7.99L52.01 7.99L52.01 7.99Q52.12 7.63 52.21 7.29L52.21 7.29L52.21 7.29Q52.30 6.94 52.39 6.54L52.39 6.54L52.39 6.54Q51.90 6.51 51.62 6.27L51.62 6.27L51.62 6.27Q51.34 6.02 51.34 5.63L51.34 5.63L51.34 5.63Q51.34 5.52 51.37 5.36L51.37 5.36L51.37 5.36Q51.41 5.21 51.45 5.10L51.45 5.10L51.45 5.10Q51.73 5.14 51.99 5.15L51.99 5.15L51.99 5.15Q52.25 5.17 52.67 5.17L52.67 5.17L52.67 5.17Q53.55 5.17 54.32 5.12L54.32 5.12L54.32 5.12Q55.09 5.07 55.71 5.01L55.71 5.01L55.71 5.01Q56.34 4.96 56.78 4.91L56.78 4.91L56.78 4.91Q57.23 4.86 57.47 4.86L57.47 4.86L57.47 4.86Q57.79 4.86 58.04 5.19L58.04 5.19L58.04 5.19Q58.30 5.53 58.42 6.15L58.42 6.15L58.42 6.15Q57.99 6.10 57.71 6.09L57.71 6.09L57.71 6.09Q57.44 6.08 57.23 6.08L57.23 6.08L57.23 6.08Q56.46 6.08 55.82 6.15L55.82 6.15L55.82 6.15Q55.19 6.23 54.60 6.31L54.60 6.31L54.60 6.31Q54.52 6.44 54.41 6.64L54.41 6.64L54.41 6.64Q54.31 6.83 54.14 7.18L54.14 7.18L54.14 7.18Q53.97 7.53 53.72 8.06L53.72 8.06L53.72 8.06Q53.48 8.60 53.13 9.39L53.13 9.39L53.13 9.39Q53.66 9.31 54.13 9.26L54.13 9.26L54.13 9.26Q54.60 9.21 54.92 9.21ZM74.19 7.46L74.19 7.46L74.19 7.46Q74.19 8.13 73.88 8.73L73.88 8.73L73.88 8.73Q73.58 9.32 73.05 9.79L73.05 9.79L73.05 9.79Q72.52 10.26 71.81 10.58L71.81 10.58L71.81 10.58Q71.09 10.91 70.25 11.02L70.25 11.02L70.25 11.02Q70.46 11.65 70.76 12.31L70.76 12.31L70.76 12.31Q71.06 12.98 71.41 13.59L71.41 13.59L71.41 13.59Q71.76 14.21 72.14 14.73L72.14 14.73L72.14 14.73Q72.52 15.25 72.88 15.58L72.88 15.58L72.88 15.58Q72.81 15.72 72.68 15.86L72.68 15.86L72.68 15.86Q72.55 16.00 72.37 16.12L72.37 16.12L72.37 16.12Q72.20 16.24 72.01 16.32L72.01 16.32L72.01 16.32Q71.82 16.39 71.65 16.39L71.65 16.39L71.65 16.39Q71.34 16.39 71.06 16.10L71.06 16.10L71.06 16.10Q70.78 15.81 70.50 15.17L70.50 15.17L70.50 15.17Q70.21 14.53 69.89 13.52L69.89 13.52L69.89 13.52Q69.58 12.50 69.20 11.07L69.20 11.07L69.20 11.07Q69.05 11.07 68.89 11.07L68.89 11.07L68.89 11.07Q68.74 11.07 68.66 11.05L68.66 11.05L68.66 11.05Q68.56 10.99 68.45 10.85L68.45 10.85L68.45 10.85Q68.07 11.66 67.77 12.38L67.77 12.38L67.77 12.38Q67.48 13.09 67.25 13.76L67.25 13.76L67.25 13.76Q67.02 14.42 66.84 15.04L66.84 15.04L66.84 15.04Q66.67 15.67 66.54 16.31L66.54 16.31L66.54 16.31Q66.07 16.20 65.72 15.90L65.72 15.90L65.72 15.90Q65.37 15.61 65.06 15.08L65.06 15.08L65.06 15.08Q65.11 14.95 65.18 14.83L65.18 14.83L65.18 14.83Q65.24 14.71 65.34 14.50L65.34 14.50L65.34 14.50Q65.44 14.28 65.58 13.94L65.58 13.94L65.58 13.94Q65.73 13.61 65.97 13.05L65.97 13.05L65.97 13.05Q66.22 12.49 66.56 11.68L66.56 11.68L66.56 11.68Q66.91 10.86 67.40 9.70L67.40 9.70L67.40 9.70Q67.62 9.18 67.78 8.79L67.78 8.79L67.78 8.79Q67.94 8.40 68.07 8.04L68.07 8.04L68.07 8.04Q68.19 7.69 68.30 7.33L68.30 7.33L68.30 7.33Q68.40 6.97 68.52 6.51L68.52 6.51L68.52 6.51Q67.87 6.73 67.32 7.01L67.32 7.01L67.32 7.01Q66.77 7.28 66.40 7.59L66.40 7.59L66.40 7.59Q66.28 7.50 66.14 7.34L66.14 7.34L66.14 7.34Q66.01 7.17 65.90 6.96L65.90 6.96L65.90 6.96Q65.79 6.76 65.70 6.55L65.70 6.55L65.70 6.55Q65.62 6.34 65.60 6.17L65.60 6.17L65.60 6.17Q66.02 5.89 66.63 5.66L66.63 5.66L66.63 5.66Q67.24 5.42 67.93 5.24L67.93 5.24L67.93 5.24Q68.61 5.07 69.33 4.97L69.33 4.97L69.33 4.97Q70.04 4.87 70.66 4.87L70.66 4.87L70.66 4.87Q72.34 4.87 73.26 5.56L73.26 5.56L73.26 5.56Q74.19 6.26 74.19 7.46ZM70.60 6.02L70.77 6.29L70.77 6.29Q70.67 6.41 70.46 6.79L70.46 6.79L70.46 6.79Q70.25 7.17 69.98 7.69L69.98 7.69L69.98 7.69Q69.71 8.22 69.41 8.83L69.41 8.83L69.41 8.83Q69.10 9.45 68.82 10.05L68.82 10.05L68.82 10.05Q69.87 10.05 70.76 9.86L70.76 9.86L70.76 9.86Q71.64 9.66 72.28 9.30L72.28 9.30L72.28 9.30Q72.93 8.95 73.28 8.46L73.28 8.46L73.28 8.46Q73.64 7.98 73.64 7.39L73.64 7.39L73.64 7.39Q73.64 6.69 73.14 6.32L73.14 6.32L73.14 6.32Q72.63 5.95 71.58 5.95L71.58 5.95L71.58 5.95Q71.34 5.95 71.11 5.97L71.11 5.97L71.11 5.97Q70.87 5.99 70.60 6.02L70.60 6.02ZM97.54 9.34L97.54 9.34L97.54 9.34Q97.99 9.34 98.24 9.59L98.24 9.59L98.24 9.59Q98.50 9.84 98.50 10.29L98.50 10.29L98.50 10.29Q98.50 10.40 98.49 10.52L98.49 10.52L98.49 10.52Q98.48 10.64 98.43 10.72L98.43 10.72L98.43 10.72Q98.25 10.70 98.03 10.68L98.03 10.68L98.03 10.68Q97.80 10.65 97.50 10.65L97.50 10.65L97.50 10.65Q96.87 10.65 96.24 10.77L96.24 10.77L96.24 10.77Q95.61 10.88 95.03 10.95L95.03 10.95L95.03 10.95Q94.40 12.43 94.00 13.73L94.00 13.73L94.00 13.73Q93.59 15.04 93.37 16.31L93.37 16.31L93.37 16.31Q92.89 16.20 92.53 15.90L92.53 15.90L92.53 15.90Q92.16 15.61 91.84 15.08L91.84 15.08L91.84 15.08Q91.94 14.85 92.08 14.54L92.08 14.54L92.08 14.54Q92.22 14.22 92.41 13.74L92.41 13.74L92.41 13.74Q92.61 13.26 92.88 12.56L92.88 12.56L92.88 12.56Q93.16 11.87 93.53 10.91L93.53 10.91L93.53 10.91Q92.95 10.71 92.76 10.22L92.76 10.22L92.76 10.22Q92.83 10.15 93.16 10.06L93.16 10.06L93.16 10.06Q93.48 9.97 93.94 9.86L93.94 9.86L93.94 9.86Q94.15 9.31 94.30 8.88L94.30 8.88L94.30 8.88Q94.46 8.46 94.58 8.07L94.58 8.07L94.58 8.07Q94.71 7.69 94.81 7.32L94.81 7.32L94.81 7.32Q94.92 6.94 95.00 6.52L95.00 6.52L94.93 6.52L94.93 6.52Q94.40 6.52 94.07 6.27L94.07 6.27L94.07 6.27Q93.74 6.02 93.74 5.61L93.74 5.61L93.74 5.61Q93.74 5.50 93.78 5.35L93.78 5.35L93.78 5.35Q93.81 5.19 93.87 5.08L93.87 5.08L93.87 5.08Q94.14 5.12 94.39 5.14L94.39 5.14L94.39 5.14Q94.65 5.15 95.07 5.15L95.07 5.15L95.07 5.15Q95.96 5.15 96.73 5.10L96.73 5.10L96.73 5.10Q97.50 5.05 98.12 5.00L98.12 5.00L98.12 5.00Q98.74 4.94 99.19 4.89L99.19 4.89L99.19 4.89Q99.64 4.84 99.88 4.84L99.88 4.84L99.88 4.84Q100.20 4.84 100.45 5.18L100.45 5.18L100.45 5.18Q100.70 5.52 100.84 6.13L100.84 6.13L100.84 6.13Q100.39 6.09 100.12 6.08L100.12 6.08L100.12 6.08Q99.85 6.06 99.64 6.06L99.64 6.06L99.64 6.06Q98.92 6.06 98.33 6.13L98.33 6.13L98.33 6.13Q97.73 6.19 97.20 6.27L97.20 6.27L97.20 6.27Q97.12 6.40 97.01 6.59L97.01 6.59L97.01 6.59Q96.91 6.79 96.74 7.15L96.74 7.15L96.74 7.15Q96.57 7.50 96.31 8.08L96.31 8.08L96.31 8.08Q96.05 8.65 95.66 9.53L95.66 9.53L95.66 9.53Q96.21 9.45 96.70 9.39L96.70 9.39L96.70 9.39Q97.20 9.34 97.54 9.34ZM112.84 4.98L112.84 4.98L112.84 4.98Q113.11 5.10 113.39 5.27L113.39 5.27L113.39 5.27Q113.67 5.45 113.90 5.63L113.90 5.63L113.90 5.63Q114.14 5.81 114.30 5.98L114.30 5.98L114.30 5.98Q114.46 6.16 114.48 6.27L114.48 6.27L114.48 6.27Q114.24 6.22 114.00 6.20L114.00 6.20L114.00 6.20Q113.76 6.17 113.57 6.17L113.57 6.17L113.57 6.17Q112.94 6.17 112.31 6.48L112.31 6.48L112.31 6.48Q111.69 6.79 111.13 7.32L111.13 7.32L111.13 7.32Q110.57 7.85 110.10 8.57L110.10 8.57L110.10 8.57Q109.62 9.28 109.28 10.09L109.28 10.09L109.28 10.09Q108.93 10.91 108.74 11.77L108.74 11.77L108.74 11.77Q108.54 12.64 108.54 13.48L108.54 13.48L108.54 13.48Q108.54 14.57 108.91 15.11L108.91 15.11L108.91 15.11Q109.27 15.64 109.97 15.64L109.97 15.64L109.97 15.64Q110.31 15.64 110.70 15.51L110.70 15.51L110.70 15.51Q111.09 15.37 111.50 15.13L111.50 15.13L111.50 15.13Q111.90 14.90 112.29 14.56L112.29 14.56L112.29 14.56Q112.69 14.22 113.02 13.82L113.02 13.82L113.02 13.82Q113.51 13.23 113.90 12.48L113.90 12.48L113.90 12.48Q114.30 11.73 114.57 10.89L114.57 10.89L114.57 10.89Q114.84 10.05 114.99 9.16L114.99 9.16L114.99 9.16Q115.14 8.27 115.14 7.42L115.14 7.42L115.14 7.42Q115.14 7.08 115.12 6.85L115.12 6.85L115.12 6.85Q115.11 6.62 115.09 6.46L115.09 6.46L115.09 6.46Q115.07 6.30 115.05 6.20L115.05 6.20L115.05 6.20Q115.04 6.10 115.02 6.03L115.02 6.03L115.02 6.03Q115.19 6.12 115.39 6.24L115.39 6.24L115.39 6.24Q115.60 6.36 115.77 6.59L115.77 6.59L115.77 6.59Q115.95 6.82 116.07 7.20L116.07 7.20L116.07 7.20Q116.19 7.57 116.19 8.18L116.19 8.18L116.19 8.18Q116.19 9.16 115.95 10.10L115.95 10.10L115.95 10.10Q115.72 11.05 115.31 11.90L115.31 11.90L115.31 11.90Q114.90 12.75 114.34 13.50L114.34 13.50L114.34 13.50Q113.78 14.24 113.13 14.80L113.13 14.80L113.13 14.80Q112.29 15.54 111.34 15.95L111.34 15.95L111.34 15.95Q110.39 16.35 109.51 16.35L109.51 16.35L109.51 16.35Q108.22 16.35 107.54 15.53L107.54 15.53L107.54 15.53Q106.86 14.71 106.86 13.12L106.86 13.12L106.86 13.12Q106.86 12.26 107.05 11.31L107.05 11.31L107.05 11.31Q107.24 10.36 107.58 9.44L107.58 9.44L107.58 9.44Q107.93 8.51 108.40 7.68L108.40 7.68L108.40 7.68Q108.88 6.85 109.44 6.21L109.44 6.21L109.44 6.21Q110.01 5.57 110.66 5.19L110.66 5.19L110.66 5.19Q111.31 4.82 112.00 4.82L112.00 4.82L112.00 4.82Q112.22 4.82 112.42 4.85L112.42 4.85L112.42 4.85Q112.62 4.89 112.84 4.98ZM133.03 7.46L133.03 7.46L133.03 7.46Q133.03 8.13 132.73 8.73L132.73 8.73L132.73 8.73Q132.43 9.32 131.89 9.79L131.89 9.79L131.89 9.79Q131.36 10.26 130.65 10.58L130.65 10.58L130.65 10.58Q129.93 10.91 129.09 11.02L129.09 11.02L129.09 11.02Q129.30 11.65 129.60 12.31L129.60 12.31L129.60 12.31Q129.91 12.98 130.26 13.59L130.26 13.59L130.26 13.59Q130.61 14.21 130.98 14.73L130.98 14.73L130.98 14.73Q131.36 15.25 131.73 15.58L131.73 15.58L131.73 15.58Q131.66 15.72 131.52 15.86L131.52 15.86L131.52 15.86Q131.39 16.00 131.21 16.12L131.21 16.12L131.21 16.12Q131.04 16.24 130.85 16.32L130.85 16.32L130.85 16.32Q130.66 16.39 130.49 16.39L130.49 16.39L130.49 16.39Q130.19 16.39 129.91 16.10L129.91 16.10L129.91 16.10Q129.63 15.81 129.34 15.17L129.34 15.17L129.34 15.17Q129.05 14.53 128.74 13.52L128.74 13.52L128.74 13.52Q128.42 12.50 128.04 11.07L128.04 11.07L128.04 11.07Q127.89 11.07 127.74 11.07L127.74 11.07L127.74 11.07Q127.58 11.07 127.50 11.05L127.50 11.05L127.50 11.05Q127.40 10.99 127.29 10.85L127.29 10.85L127.29 10.85Q126.91 11.66 126.62 12.38L126.62 12.38L126.62 12.38Q126.32 13.09 126.09 13.76L126.09 13.76L126.09 13.76Q125.86 14.42 125.68 15.04L125.68 15.04L125.68 15.04Q125.51 15.67 125.38 16.31L125.38 16.31L125.38 16.31Q124.91 16.20 124.56 15.90L124.56 15.90L124.56 15.90Q124.21 15.61 123.90 15.08L123.90 15.08L123.90 15.08Q123.96 14.95 124.02 14.83L124.02 14.83L124.02 14.83Q124.08 14.71 124.18 14.50L124.18 14.50L124.18 14.50Q124.28 14.28 124.42 13.94L124.42 13.94L124.42 13.94Q124.57 13.61 124.82 13.05L124.82 13.05L124.82 13.05Q125.06 12.49 125.40 11.68L125.40 11.68L125.40 11.68Q125.75 10.86 126.24 9.70L126.24 9.70L126.24 9.70Q126.46 9.18 126.62 8.79L126.62 8.79L126.62 8.79Q126.78 8.40 126.91 8.04L126.91 8.04L126.91 8.04Q127.04 7.69 127.14 7.33L127.14 7.33L127.14 7.33Q127.25 6.97 127.36 6.51L127.36 6.51L127.36 6.51Q126.71 6.73 126.16 7.01L126.16 7.01L126.16 7.01Q125.61 7.28 125.24 7.59L125.24 7.59L125.24 7.59Q125.12 7.50 124.98 7.34L124.98 7.34L124.98 7.34Q124.85 7.17 124.74 6.96L124.74 6.96L124.74 6.96Q124.63 6.76 124.54 6.55L124.54 6.55L124.54 6.55Q124.46 6.34 124.45 6.17L124.45 6.17L124.45 6.17Q124.87 5.89 125.47 5.66L125.47 5.66L125.47 5.66Q126.08 5.42 126.77 5.24L126.77 5.24L126.77 5.24Q127.46 5.07 128.17 4.97L128.17 4.97L128.17 4.97Q128.88 4.87 129.50 4.87L129.50 4.87L129.50 4.87Q131.18 4.87 132.10 5.56L132.10 5.56L132.10 5.56Q133.03 6.26 133.03 7.46ZM129.44 6.02L129.61 6.29L129.61 6.29Q129.51 6.41 129.30 6.79L129.30 6.79L129.30 6.79Q129.09 7.17 128.82 7.69L128.82 7.69L128.82 7.69Q128.55 8.22 128.25 8.83L128.25 8.83L128.25 8.83Q127.95 9.45 127.67 10.05L127.67 10.05L127.67 10.05Q128.72 10.05 129.60 9.86L129.60 9.86L129.60 9.86Q130.48 9.66 131.12 9.30L131.12 9.30L131.12 9.30Q131.77 8.95 132.12 8.46L132.12 8.46L132.12 8.46Q132.48 7.98 132.48 7.39L132.48 7.39L132.48 7.39Q132.48 6.69 131.98 6.32L131.98 6.32L131.98 6.32Q131.47 5.95 130.42 5.95L130.42 5.95L130.42 5.95Q130.19 5.95 129.95 5.97L129.95 5.97L129.95 5.97Q129.71 5.99 129.44 6.02L129.44 6.02ZM147.80 10.72L147.80 10.72L147.80 10.72Q148.16 10.72 148.37 10.98L148.37 10.98L148.37 10.98Q148.58 11.23 148.58 11.68L148.58 11.68L148.58 11.68Q148.58 11.79 148.57 11.91L148.57 11.91L148.57 11.91Q148.55 12.03 148.53 12.11L148.53 12.11L148.53 12.11Q148.23 12.04 147.88 12.03L147.88 12.03L147.88 12.03Q147.80 12.64 147.43 13.32L147.43 13.32L147.43 13.32Q147.07 14 146.55 14.60L146.55 14.60L146.55 14.60Q146.03 15.19 145.42 15.64L145.42 15.64L145.42 15.64Q144.80 16.09 144.20 16.24L144.20 16.24L144.20 16.24Q142.32 16.20 141.46 15.27L141.46 15.27L141.46 15.27Q140.60 14.34 140.60 12.36L140.60 12.36L140.60 12.36Q140.60 10.92 141.13 9.57L141.13 9.57L141.13 9.57Q141.67 8.22 142.55 7.17L142.55 7.17L142.55 7.17Q143.43 6.12 144.57 5.48L144.57 5.48L144.57 5.48Q145.71 4.84 146.94 4.84L146.94 4.84L146.94 4.84Q147.91 4.84 148.45 5.25L148.45 5.25L148.45 5.25Q148.99 5.66 148.99 6.40L148.99 6.40L148.99 6.40Q148.99 6.89 148.76 7.31L148.76 7.31L148.76 7.31Q148.53 7.73 147.99 8.22L147.99 8.22L147.99 8.22Q147.67 8.12 147.43 7.88L147.43 7.88L147.43 7.88Q147.20 7.63 147.14 7.31L147.14 7.31L147.14 7.31Q147.62 6.96 147.81 6.66L147.81 6.66L147.81 6.66Q148.01 6.37 148.01 5.96L148.01 5.96L148.01 5.96Q148.01 5.32 147.24 5.32L147.24 5.32L147.24 5.32Q146.61 5.32 145.89 5.79L145.89 5.79L145.89 5.79Q145.17 6.26 144.44 7.14L144.44 7.14L144.44 7.14Q143.40 8.39 142.93 9.71L142.93 9.71L142.93 9.71Q142.45 11.03 142.45 12.68L142.45 12.68L142.45 12.68Q142.45 13.30 142.58 13.80L142.58 13.80L142.58 13.80Q142.70 14.31 142.91 14.69L142.91 14.69L142.91 14.69Q143.12 15.06 143.41 15.29L143.41 15.29L143.41 15.29Q143.70 15.51 144.03 15.54L144.03 15.54L144.03 15.54Q144.48 15.44 144.93 15.09L144.93 15.09L144.93 15.09Q145.38 14.73 145.75 14.25L145.75 14.25L145.75 14.25Q146.12 13.76 146.38 13.21L146.38 13.21L146.38 13.21Q146.64 12.66 146.69 12.15L146.69 12.15L146.69 12.15Q146.30 12.24 145.94 12.31L145.94 12.31L145.94 12.31Q145.59 12.39 145.26 12.39L145.26 12.39L145.26 12.39Q144.84 12.39 144.53 12.18L144.53 12.18L144.53 12.18Q144.21 11.97 144.10 11.61L144.10 11.61L144.10 11.61Q144.35 11.47 144.84 11.31L144.84 11.31L144.84 11.31Q145.32 11.16 145.87 11.03L145.87 11.03L145.87 11.03Q146.41 10.89 146.94 10.81L146.94 10.81L146.94 10.81Q147.46 10.72 147.80 10.72ZM161.92 9.21L161.92 9.21L161.92 9.21Q162.39 9.21 162.64 9.46L162.64 9.46L162.64 9.46Q162.90 9.72 162.90 10.16L162.90 10.16L162.90 10.16Q162.90 10.28 162.88 10.39L162.88 10.39L162.88 10.39Q162.86 10.51 162.83 10.60L162.83 10.60L162.83 10.60Q162.65 10.57 162.43 10.55L162.43 10.55L162.43 10.55Q162.20 10.53 161.90 10.53L161.90 10.53L161.90 10.53Q161.29 10.53 160.68 10.63L160.68 10.63L160.68 10.63Q160.06 10.74 159.50 10.81L159.50 10.81L159.50 10.81Q159.18 11.55 158.91 12.24L158.91 12.24L158.91 12.24Q158.65 12.94 158.46 13.51L158.46 13.51L158.46 13.51Q158.27 14.08 158.16 14.50L158.16 14.50L158.16 14.50Q158.06 14.92 158.05 15.13L158.05 15.13L158.05 15.13Q159.18 14.90 160.33 14.73L160.33 14.73L160.33 14.73Q161.49 14.56 162.76 14.48L162.76 14.48L162.76 14.48Q162.92 14.71 163.02 14.99L163.02 14.99L163.02 14.99Q163.13 15.27 163.13 15.60L163.13 15.60L163.13 15.60Q163.13 15.68 163.13 15.78L163.13 15.78L163.13 15.78Q163.13 15.88 163.10 15.97L163.10 15.97L163.10 15.97Q162.71 15.96 162.27 15.95L162.27 15.95L162.27 15.95Q161.84 15.95 161.14 15.95L161.14 15.95L161.14 15.95Q160.68 15.95 160.26 15.97L160.26 15.97L160.26 15.97Q159.85 15.99 159.43 16.03L159.43 16.03L159.43 16.03Q159.01 16.07 158.54 16.14L158.54 16.14L158.54 16.14Q158.07 16.21 157.49 16.31L157.49 16.31L157.49 16.31Q156.84 16.06 156.24 15.08L156.24 15.08L156.24 15.08Q156.48 14.57 156.90 13.54L156.90 13.54L156.90 13.54Q157.33 12.52 157.99 10.79L157.99 10.79L157.99 10.79Q157.36 10.60 157.16 10.09L157.16 10.09L157.16 10.09Q157.23 10.02 157.57 9.92L157.57 9.92L157.57 9.92Q157.91 9.81 158.40 9.70L158.40 9.70L158.40 9.70Q158.61 9.16 158.75 8.75L158.75 8.75L158.75 8.75Q158.90 8.34 159.01 7.99L159.01 7.99L159.01 7.99Q159.12 7.63 159.21 7.29L159.21 7.29L159.21 7.29Q159.31 6.94 159.39 6.54L159.39 6.54L159.39 6.54Q158.90 6.51 158.62 6.27L158.62 6.27L158.62 6.27Q158.34 6.02 158.34 5.63L158.34 5.63L158.34 5.63Q158.34 5.52 158.37 5.36L158.37 5.36L158.37 5.36Q158.41 5.21 158.45 5.10L158.45 5.10L158.45 5.10Q158.73 5.14 158.99 5.15L158.99 5.15L158.99 5.15Q159.25 5.17 159.67 5.17L159.67 5.17L159.67 5.17Q160.55 5.17 161.32 5.12L161.32 5.12L161.32 5.12Q162.09 5.07 162.71 5.01L162.71 5.01L162.71 5.01Q163.34 4.96 163.79 4.91L163.79 4.91L163.79 4.91Q164.23 4.86 164.47 4.86L164.47 4.86L164.47 4.86Q164.79 4.86 165.05 5.19L165.05 5.19L165.05 5.19Q165.30 5.53 165.42 6.15L165.42 6.15L165.42 6.15Q164.99 6.10 164.72 6.09L164.72 6.09L164.72 6.09Q164.44 6.08 164.23 6.08L164.23 6.08L164.23 6.08Q163.46 6.08 162.83 6.15L162.83 6.15L162.83 6.15Q162.19 6.23 161.60 6.31L161.60 6.31L161.60 6.31Q161.52 6.44 161.41 6.64L161.41 6.64L161.41 6.64Q161.31 6.83 161.14 7.18L161.14 7.18L161.14 7.18Q160.97 7.53 160.73 8.06L160.73 8.06L160.73 8.06Q160.48 8.60 160.13 9.39L160.13 9.39L160.13 9.39Q160.66 9.31 161.13 9.26L161.13 9.26L161.13 9.26Q161.60 9.21 161.92 9.21ZM174.44 6.69L174.44 6.69L174.44 6.69Q173.88 6.69 173.58 6.38L173.58 6.38L173.58 6.38Q173.28 6.06 173.28 5.61L173.28 5.61L173.28 5.61Q173.28 5.50 173.31 5.35L173.31 5.35L173.31 5.35Q173.35 5.19 173.40 5.08L173.40 5.08L173.40 5.08Q173.59 5.17 173.94 5.20L173.94 5.20L173.94 5.20Q174.30 5.24 174.78 5.24L174.78 5.24L174.78 5.24Q175.49 5.24 176.39 5.17L176.39 5.17L176.39 5.17Q177.30 5.11 178.12 5.04L178.12 5.04L178.12 5.04Q178.95 4.97 179.58 4.91L179.58 4.91L179.58 4.91Q180.21 4.84 180.39 4.84L180.39 4.84L180.39 4.84Q180.91 4.84 181.14 5.23L181.14 5.23L181.14 5.23Q181.37 5.61 181.48 6.26L181.48 6.26L181.48 6.26Q181.12 6.23 180.76 6.21L180.76 6.21L180.76 6.21Q180.40 6.19 180.15 6.19L180.15 6.19L180.15 6.19Q179.70 6.19 179.25 6.22L179.25 6.22L179.25 6.22Q178.79 6.24 178.33 6.30L178.33 6.30L178.33 6.30Q178.14 6.71 177.90 7.26L177.90 7.26L177.90 7.26Q177.66 7.81 177.43 8.41L177.43 8.41L177.43 8.41Q177.20 9.02 176.99 9.61L176.99 9.61L176.99 9.61Q176.78 10.21 176.62 10.68L176.62 10.68L176.62 10.68Q176.32 11.61 176.08 12.39L176.08 12.39L176.08 12.39Q175.85 13.17 175.68 13.85L175.68 13.85L175.68 13.85Q175.50 14.53 175.38 15.15L175.38 15.15L175.38 15.15Q175.25 15.76 175.15 16.35L175.15 16.35L175.15 16.35Q174.22 16.21 173.59 15.18L173.59 15.18L173.59 15.18Q173.70 14.74 173.86 14.23L173.86 14.23L173.86 14.23Q174.02 13.72 174.24 13.07L174.24 13.07L174.24 13.07Q174.45 12.42 174.75 11.59L174.75 11.59L174.75 11.59Q175.04 10.77 175.42 9.72L175.42 9.72L175.42 9.72Q175.56 9.32 175.71 8.90L175.71 8.90L175.71 8.90Q175.87 8.47 176.01 8.05L176.01 8.05L176.01 8.05Q176.16 7.63 176.28 7.24L176.28 7.24L176.28 7.24Q176.40 6.85 176.48 6.52L176.48 6.52L176.48 6.52Q175.90 6.59 175.37 6.64L175.37 6.64L175.37 6.64Q174.85 6.69 174.44 6.69ZM186.49 15.71L186.49 15.71L186.49 15.71Q186.27 15.68 186.03 15.52L186.03 15.52L186.03 15.52Q185.78 15.36 185.71 15.16L185.71 15.16L185.71 15.16Q185.71 14.99 185.76 14.73L185.76 14.73L185.76 14.73Q185.81 14.46 185.88 14.19L185.88 14.19L185.88 14.19Q185.95 13.92 186.02 13.67L186.02 13.67L186.02 13.67Q186.09 13.43 186.12 13.30L186.12 13.30L186.12 13.30Q186.28 13.30 186.54 13.38L186.54 13.38L186.54 13.38Q186.80 13.47 187.07 13.62L187.07 13.62L187.07 13.62Q187.35 13.76 187.59 13.95L187.59 13.95L187.59 13.95Q187.84 14.14 187.96 14.34L187.96 14.34L187.96 14.34Q187.84 14.62 187.64 14.87L187.64 14.87L187.64 14.87Q187.45 15.12 187.23 15.31L187.23 15.31L187.23 15.31Q187.01 15.50 186.82 15.60L186.82 15.60L186.82 15.60Q186.62 15.71 186.49 15.71Z"></path></g></svg>